<mxfile host="app.diagrams.net" modified="2023-10-30T20:04:14.597Z" agent="Mozilla/5.0 (Windows NT 10.0; Win64; x64; rv:109.0) Gecko/20100101 Firefox/118.0" etag="3bVXtlvdvJxsUzHFvPCF" version="21.6.8" type="github">
  <diagram name="PÃ¡gina-1" id="VUiODiZiQbViC7gLT7nP">
    <mxGraphModel dx="4975" dy="4566" grid="1" gridSize="10" guides="1" tooltips="1" connect="1" arrows="1" fold="1" page="1" pageScale="1" pageWidth="827" pageHeight="1169" math="0" shadow="0">
      <root>
        <mxCell id="0" />
        <mxCell id="1" parent="0" />
        <mxCell id="AWK6ZrYGQ6Bk1Ji1PFGg-58" value="&lt;div&gt;&lt;br&gt;&lt;/div&gt;" style="whiteSpace=wrap;html=1;fontFamily=Helvetica;fontSize=11;fontColor=default;dropTarget=1;container=1;collapsible=0;absoluteArcSize=0;portConstraintRotation=0;autosize=0;treeFolding=0;treeMoving=1;enumerate=0;comic=0;" parent="1" vertex="1">
          <mxGeometry x="-180" y="-755" width="320" height="230" as="geometry">
            <mxRectangle x="60" y="-740" width="40" height="30" as="alternateBounds" />
          </mxGeometry>
        </mxCell>
        <mxCell id="AWK6ZrYGQ6Bk1Ji1PFGg-66" value="" style="fontColor=#000000;verticalAlign=middle;verticalLabelPosition=middle;labelPosition=right;align=left;html=1;outlineConnect=0;fillColor=#d6d6d6;strokeColor=#999;gradientColor=none;gradientDirection=north;strokeWidth=2;shape=stencil(fVHJCsMgEP0ajwmJdqHHkjan/kOYqFlooqLp9vcdM4SSQgui8xb0zchEETpwmvEMgtNyYuLEOL+D76EekOaodETmPCNsYNREnay8ao/UxbaWxMfKLM4sO7JYZ59CFI31uvX2ZtTK8eVb3P0IbUwYvKTLu2lygQn0lbikMpu0l9Y0vVHap9KOyCqYAI/IBzwHDBgSMCqpPe6R2uaYtzzsK+qiipaKfCilzrTU0ZMeTXYEX2u49Cv4elgLjhn/9CgKNPwYBxazTD80K28=);labelBackgroundColor=none;fontFamily=Helvetica;fontSize=11;" parent="AWK6ZrYGQ6Bk1Ji1PFGg-58" vertex="1">
          <mxGeometry x="21.33" y="12.78" width="52.56" height="47.22" as="geometry" />
        </mxCell>
        <mxCell id="AWK6ZrYGQ6Bk1Ji1PFGg-83" value="" style="shape=image;verticalLabelPosition=bottom;labelBackgroundColor=default;verticalAlign=top;aspect=fixed;imageAspect=0;image=data:image/png,iVBORw0KGgoAAAANSUhEUgAAAfQAAAH0CAYAAADL1t+KAAAACXBIWXMAAAsTAAALEwEAmpwYAAAAAXNSR0IArs4c6QAAAARnQU1BAACxjwv8YQUAAMDBSURBVHgB7Z0HfFRl1sZPeu+990JooXcICEpRCdiwY3d1XXF1i7q76q77ubu6a1+7YsMKBCxUIfQOoSak9957z/eeN4kbYe7M3Cn33pk5/9/vbrJMwCQzc5/3tOdYAUEQiiEldWPk4Ge9kdZgPfS5dcTQw/z/WwF49rNr6PPIS/4Jz6FLGxqHLs7AJf+f/duFQ58Ofewv6ocB9vhAox3YNvawP09PW9EIBEEoAisgCMLoMKEeEtq+ZGuw8hwS6cghceYf4XJxNhUaBwZFv3HoEFA4KP79hSj8O9JWZABBEEaHBJ0gDASKth0T5T7oTx4WbCZ0ySYu1oYCRT/DeuhjP/SdBh7t22ZQlE8QhoEEnSBEcolwj7caEm4g0dYVLvJW/LIu7IPu0yT0BCEeEnSCUMNgqrwvxQbsWMTdn0LCLR1DEX3hYETfu4eJPNbsC4EgCJWQoBPEECjetkywB1jUTeKtWAoxkh8h8hTJE8QQJOiExYId5dZMuDFtzgQixWpQwAkTYzhdz+rymwBsMiiKJywVEnTCYhgh4PPw/wJF3+ZKIbvSWT0+vQ/695DAE5YCCTphtmAKnQl4KvAUOrCPJOAWSiG70oci+HRK0RPmCgk6YVYsTN2Y0j+YPp83MBiFE8QvGODROwp8L4veb0gHgjATSNAJk2a4C90abJbDYBSurUsaQSCFQNE7YSaQoBMmB4q4DVjfCSydPtSJTiJOGASM3q3Bei3V3glThASdMAkuEfEUIAgjQ+JOmBok6IRiIREnlAKJO2EKkKATimK4M92KCTmJOKFERoj7Jqq5E0qCBJ1QBEPd6djYthqoJk6YBijmaf3Q+zF1yxNKgASdkI3BaBzWsE8fBRJxwrQpZNfH7FC6llLyhFyQoBOSg9E4S1s+Qyl1whwZTsn/lLb8YyAICSFBJySBonHCAikEPuMOz1HUTkgBCTphVCgaJwh+o03rg95XqdZOGBMSdMLgDI+bDUD/aqANZgQxkkIrsH6W0vGEMSBBJwwGpdUJQmsKgdLxhIEhQSf0Zmjk7E4YHDkjCEIca0nYCUNAgk7oDNXHCcJwUJ2d0BcSdEI0JOQEYTxo7I3QFRJ0QmtIyAlCUqiBjhAFCTqhERJygpAVEnZCK0jQCUFIyAlCUZCwE2ohQScug4ScIBRNRj/0PkbNc8SlkKATP0NCThAmRVo/wGM07kYMQ4JOoCFMpDUTcqA5coIwRWiOneCQoFsw5OymbKytrcDOzgqcnWzA1cUWvDztwNXZFuztrMGW/bmNFbtsrMDWdvBt7OBgDTbW/3tL29vhY9a/+Dd7+wegu6v/F3/W3tHHP/azx/rZQ929LKHbMwB9fQPQ3NYDjU090NraBx3s6zq7+/nXEcqDPTPPsVcNrW+1YEjQLZQFqRtRyDEqJyGXARRrX297CPBz4GLtzcTa28sO3Njnbm524MM+9/a0ByuFvUMHBgagqbkX6hq6oa29jx8GKmu6oL6+Gxqbe6C5pReqajuhu5tEXyaocc6CIUG3MLBOzuKxl61oaYokBPg7QHSYMwQFOoKnux0EBzgy4bYHN1cbLurmCNN8JvS9UN/QA8VlHdDQ2A0VTPTLKzqhrLKTR/6E0Sm0trJes3Pj8k1AWAwk6BYC1sltAD6ihjfDgxG2m4sNhIc6Q3iIE/j52ENYiDNPkdvZ0ltsJJiur2/sgbKKDqio6oIiJvjVtV3s6ob29l4gDA7V1y0IutuYOVQnNyxYzw4JcuTCHc5EOzbKBdzdbPmfE7rTxWrzVdVdLH3fCcWlnVBQ3AYFJe3QdUm9n9ANrK+np133LBBmDQm6GTO0Be0j9mkkEDqB0XZCrCvEMeGOiXSBIJYyJ6SjomowTZ+Z3QrnL7ZATV0XEDpD9XUzhwTdDBmKylHIU4EQRXQERt2uTLydISHGldW6bYFQDi0tvVBY2g6ZOa2QV9AGRezznl6qyYuE0vBmCgm6mUHd69qD415+vg4wZbwHE/BBEXdypNS5KdHbN8CEnUXv2YMCT2l6raFo3QwhQTcTqOlNO9xYvTuWpc6Tx3hAfLQL+DNBJ8wHnJnPzG6Bs1ktkF/UTil6zRSy4898itbNAxJ0M4BF5c8CNb0JEhbiBImsDj51gieEBDmBg701EOYPRu9FLGLPyW+Fk+eaeQRPqIaa5swDEnQThkXlyewJ/Ihmyi9nTKI7E3EXmJzsCX4+FIUTAE3NPXD+YiscPdXARL4NOrv6gPgFFK2bOCToJspQVP4MED+DI2TJoz1g4jgP7sBGEEKgo935i81w+GQjXLjYQna2I6Bo3XQhQTcxsFbOnrSNFJUD9zEPDXKE6ZO8WCTuxe1TCUIsHZ19cCyjEY4ycc8paIVe6ppHKFo3QUjQTQjqYB8EjVzmTPOGGZO9IdDfUXF+54Tpgq51R042wMFjDfxzS4eiddOCboUmAHWwDxIf4wqL5vrCqHh3cHKkxjbCePSxFHzG2SbYua8GsvMsu5mO3XfS2XUXRevKhwRd4TAxTx0yibHYqBw90m9ODWGC7gIEITU4/vbptyVQXNoBFgzNrZsAJOgKBd3e2JPzrNXgOJpFgtvIbloeAgtZVE4QcrN1VxX8sLP65/3xFsorQy5zjUAoDhJ0BYIpdhaV7wYL9mAfP9qdReWh4OdrDwShFGrruuHT9SVwLrMFLBhqmFMo5HOpMLDxjZ2yvmCfBoIF4uhgDTevDIUbrw0GFxfyUSeUhbOzDcyY5A1OTtZ8YcyAZTbEY/ZwdVTiqq6CrK8OA6EYKEJXCIMp9oFXrMDqTrBQvD3tYfVNYTA60Q0IQulk57fC+58XQ119N1gwlIJXECToCoBS7OwHD3OGNfdH03YzwqRobu2F/7ydByVllt0wRyl4ZUApd5lhYr6aiflGsNAUOzJxrAc8cEckiTlhcuBegNnTfKCyqhPKqyx2bp2n4KMTb6ksyPryNBCyQYIuI/NTN77CxPwF9qkjWCizpnrD6lXh4OxEL0XCNMFpjEnjPKGltQ8KS9rBQmH3sIHUiMQbrQqzvk4HQhYo5S4DZBQzyOTxnvDgnRFgRVZvhBnQ1zcA768rhqMnG8CSYfe1DHatoBS89JDdlsTghjSsl1u6mEeGOsF9t5OYE+YD7ha499ZwSIq37KZO3DOB9zgMXICQFBJ0CRmql1t08xsSFOAIjz8UC7Y2JOaEeWHD0u8P3x1F2/7YPY7d604N7Z8gJIIKlxKB606ZfL0MFlwvR3A07YmHYsDDnTajEeaJrS2rqbNyEm5v6+zqBwsG73WLqa4uHRQiGRmaL/8f2Dz0q9WRvKudIMyds5nN8NbaQujqtmhRHyatf3DBC82rGxFKuRuRod3lu0nMB7nu6iASc8JiGDvKHa5eFAAEB5dMnaK6unEhQTcSw2Yx2CACBISHOsHi+f5AEJbEVQv8ITaKtgQOEUnNcsaFBN0ILEzdmIKnUbDw5rdhsJH9/lsjgCAsDWySu/uWcL6jgOBEDkbq36YCYXDoVWZgsKuzf7CT3WL3l1/K0isCICjQonsBCQsmwNcBli6k1PsIPK3BZiN1wBseEnQDgp3sMNjJTgyB4zvXXGWxrrYEwVnGBB3LTsQveDkldf2zQBgMEnQDgTau7MMzQPyCFUuDwc6WhikI4rplQUD8EmuwfoZE3XCQoBuA+akb1jLJehSIX5AQ4wpTkqmrnSCQUfFukBjnCsQvQVFn2c2PgNAbCp30YHDGnDrZhXjgjgiYOsELCIIY5PzFZvjP2/lAXM6QB/x8mlXXHYrQdYTEXD2hQY4sOicxJ4iRjE5wh5hIZyAuB++lVjTWphck6DowNGN+isRcmKvm+wPtXSGIy1m+mGrpQtBiF/0gQRfJsGEM0Iy5IG5utjB1IkXnBKGKUayO7udjD4QgZECjIyToIiAx145JYz1pkxpBCIA7DWZN8QZCLSTqOkCCriUk5tozk25WBKGWaZM8qSSlGRJ1kZCgawGJufa4u9lBdAQZaBCEOvx9HSE8hJrjtIBEXQQk6BogMRfHuCR3FnlQ6EEQmhiT6AaEVpCoawkJuhpIzMVDNymC0I7JE2jdgwhI1LWABF0AEnPx4Gap6AhaFUkQ2oBLW3y9qdtdBCTqGiBBVwGJuW6EhzmBj5cdEAShGQd7a4iPIStYkZCoq4EE/RJIzHUnMpSafAhCDGEh1ECqAyTqApCgj4DEXD/C6eZEEKKIDqdDsI6QqKuABH2IIW/2jUBirjNBAY5AEIT2eHna0Ty67kTiPRvv3UBwSNCHoEUr+oE3JW9Pqp8ThBgcHazBxdkWCN0YXugCBIcEHX7eZ05irgd4U3J1oRsTQYjB2ckGHOwoRNcHvHfTPvVBLF7Q2QvhWSuwuhMIvXBjYu7gQOdDghADmjDZ2tP7xgCsZvfyl8HCsehXEoo5+/AMEHpDYk4QumFnSxG6gViTkrr+WbBgLPYuzMR8DZCYGwx7e7opEYQukFWy4bAG62eG7u0WiUUKekrqxlT2weLTM4aEbkoEoRsUoRucl1NSv0kBC8TiBH1o1pwaKAiCIMwUa7DdaIkz6hYl6COMY2hukSAIwnzxtETjGYsRdDQfIBc449HfPwAEQYinrw8I42BxxjMWI+hDafZIIIxCTw8JOkHoQv8AvXeMBc6oW1tQv5RFCPrQeFoqEEajvYPCDILQhZ6efiCMympLGWcze0Gn8TRp6Oruh266MRGEKDA4x/cOYVxwnC0ldZPZG4iZtaAPNUSQmEtAa2svtLVRlE4QYsDMVgdltyTBGvpfYZpg1hbfZivo1NEuLX39A9DWTjcmghBDCzsId3ZRhC4R2Bht1uNsZivotApVevKL24EgCO2pb+wGQlKw891sfUjMUtAHF67Q9jSpKS0nQScIMZSWdwAhLUwbUsx1kYvZCTp7olYD1c1loaC4A2gChyC0J7+IBF0m1phjk5xZCfpQbYQ82mWiuKwdGpp6gCAIzXR29kFWbgsQ8jDUJBcJZoTZCPoIJzhqgpOJ3t4BuJjbCgRBaKa4rJM3xRGyMWwPazaaYTaCzuoizwI1wcnO+YvNQBCEZs5caAJCdiLNyUnOLAQdzWOYoD8KhOycudDM6uhUSCcIdeB75OipBiAUwWpz2aFu8ot4h+bNT4EZpdqtra3AzcUWnJ1twM3VDry97Pn/t7W1AidHG24V2c3S2+3tvdDIatZtHX3Q1tYDjc090KWAmdbfPhgDoxPcgCAI1RSVtsNf/50NcmNnZw3u7B7j5GQDHu524OVhD67sXmPFlMGePdbF7jW4p6GltQeaW3p43b+hqZuXCsxsIVMju3NOSE9bUQgmjC2YMOZSN3dztYX4GDcID3HmHwP9HfmbzMFB+wQKnvhb2/ugpqYTKtiVX9QGufktUFDcLvkb71hGIwk6Qajh4LF6kBoMFEKCnCAmwhWiIlwgMc6DibcNeLrb88e0BXtlGpq6oKa2ix9M8otaWWaugQm+SfcDDNfTUdQbwUQxaUE35bp5aLAzzJziDeNHe0JEqAvoi5XVYFTv5uIK0ZGuMGuKL/9zdG/DN1z6gWo4caaBvxmNzZGTDXDrdaFgZ2vyCSCCMDjoqng8QxrNwCg7KcEDZkz2gUnjvcHFWf9bPmYK/Xwc+YX/9jBlFe2QldsMO/dWQWFxG5ggmO3FkefHwEQx2Tvu0Ly5STn+uLAU+hVzAmDqRG+IDNNfxMWCvtHZec2w5adKyMxuMeraxntvjWA3ES8gCOKXYHT+wbpiMCZjEj1g9jQ/9h70BXt76VulKqs72M9Zy6+yCtOate+HvhXpadengQlikoI+wqc9EhQORs5x0a6w5IpASGbRONaslADW3renV8KBY3VQV98FhiY8xAn+8ng8//kJgvgfT/79AlTXGt7y1ZlF37Om+MDVV4aCv68DKIWTZ+rhp31V7KPJNAGabD3dJFPuNiwyHzABMQ9nUfjNqWH8tKw0XfP0sIMbl4fBVQsCYRdLke3YW82bXgxFcVkH73gfP9oDCIIYZPeBWoOLOQr5VSmBsHhBELi72YHSmDjOm1/FZW2wbn0RnD6v+BK155Df+3wwMWzAxECfdvZhNSiYoAAnWL0qEm5ZEc4/V3KQ6uhgA6Pi3Vk93wdsbawht6DVYPathcUdMGuaD6+5EYSlg53hH35ZzEtfhgCzX/Nm+cMTDyXCJCaYDg7Kvp17uNvzMkBEmDN3lVSyqQ67Y0VGJa5qKsj66jCYECZ1px1KtReAQkHhWr44hF3BorpGlURlTSe890k+XMwzjCXl4gX+cMM1wUAQls7mbZWwaWslGILoCFe47/YYWXpxDEFPbz9s21UBG7eU8fFbhWJyqXeTitCjE1cpdt4cR84efyiBd5Oact0YZ1BnTh2M1nPyW6Bfz7F23CY1cawHH80jCEulooodlD8r0vv9hIHCiqWh8Ot74vnMuKliw36O+JjBzGB+YSvUNShyjawju1IKs756B0wEkxH0oVR7KigMfIMtYvWrh++KBV9v5TSi6AO+2UbFucPUCd5w+lwjN67Rld6+AcjOa4OUmaZ90CEIXUEfiDc+LIS6ev1Ey9vTHp5+bDRPW5vLWwnH6FJmBYCTozUT9jbo7pHfGGsk7NccGJG4Cpio7wETwCQEHVPt7Be7ERSGr48D/PruWLgyJcAs68ToUjeDnaA7u/qhQI+50mZWK7OxtmYnclcgCEtj1/5a2HuoDvRhwjgv+P2vk3hPjjmC0frYJA84c6HRYD0GhgL3pzNR38RE3TD1EiNiEl7uQyNqigLFfM398fxFaM5g1yw2+C1bqF8d/PudlVBdY/jxOIJQMmjH/N32KtAHzAA+em8CeLorr4PdkESFu8KfHx8NYax8qTSsTMTzRPERuhJT7QlxbvDM40lmk2LXBKb3xo7yAA8m7ueymnSqA+LfqazugsnJXjylTxCWwMdflXD7ZV257uowuPW6SIuZFMEUPJrhFJW0QVVNJygFU0m9K1rQlZhqj492g989nMCXpFga2FmL8+sZZ5tAl8m2mrpu3nQXE2manbkEIYZDxxv0is5vvS4CUpeGgqWBznazpvmx318NtCpotI1pUTIT9a+YqCt2kF7RKXelpdqjwl3g1/fGWqSYD5My0x9uWhEGuoJjO1WUeifMnPrGbti4pQJ0ZdmiYLj6yhCwVDCJ99zvx0KQvyMoCE+lp94Vq0xDXu2rQSH4s5r5Hx5J5KtMLR3MUrS09PKNbmLB5TBFZR0wZ5oPEIS5suGHCrhwUTcvh6kTffiMuaVPhTjY28DE8V5w4GgNdHUro/td6YYzihT0oVQ7noQUMXPu5GANjz+UCMGB5tlhqgujE92htKIDKirF17nqG3r4mAql3glzJK+wDT75phR0IcDPEZ58NAnsbE2iX9noYE09NtIN9hyqBgUxnaXe32Gpd+UU+YdQ5KtmaIVdJCiE266PZPVjEp+R4A3nnpujwd9Pt8bAzay2WF1LqXfCvMARzTc+1M3MEvtL/sjE3FHhFq5Sg9bUN1yre5nPCODudEWm3hUn6EpLtS9bFATzZvkBcTnubrbw2wcTwNlJvAtcR0cffLiuBAaMuMKVIKTmiw2l0NyiWyPXI/fGQ6CfomrGimHlsjCYOkFRZbrUlNRvUkBhKK5IwwQdj7eRoACiwlzgT78dpfilB3Jz4nQ9vPJujk5LXVbfFAZzplM9XR1dXf3Q2t4LHZ390NjUDbV13dDQ1AOdnX2stjgArW29/EJHP/xa9Mnu6xvgzwcemHp6B58YHH2yHqrL4ud27MI6pYuzDU9toj2vg70VOLEDGk4z+Hrb88fwz91Y9OjgQGlgdRw50QDvflYEuoARKIoWIQwGAX/8WwZU1ykms1c45PWumK53RRlsD82cR4ICwOY37GgnMdfMpPHefClN2pYyEMs335VDUrwb+HhbdrMh2oOiCUlZRSdU1nRBfUM3lJR3crtQvJGhWOPX6ENvr6q/r93KXEwHo7GJq6sNBAU4gp+PPQQHOEFIkAN4MfG39AYu7AtZ/6NuXe1zpvtZ5HiaWJycbOChu+Pg+ZfPC7yWJSeSXY+y6zlQCIp5Fyptk9o9t0bB/Fn+QGgHRoVvfJDLovUGEEtspDP88TdxFiMKKMy4jCKvsB1y8tugvKoTCovbFedjrS1Y8w0JcmTpYgdISnCDaPZ84lSIJfHOJ4Vw9JT4QC3Q3xH+/uQ4vtOc0I7NW0vhi43FoBAUtZFNMa+ioUY4RZDCauYk5uLAJrm7bo6CkrJ20c1uuUzYtu6ugSULzPN3joedi7mtkF/UDsWlHZDFPu/oVJZftT50dvXxzm68Dhyr53+GafqwYCdIiHWF6AhniIt25Sl+c+TE6UadxNzL0x5+/8goEnORLLkiGHIKWuF4Rj0ogOHZ9PmgABTxDrsidWPqgEIc4QLYifn/nh4LDnZUL9QF3Kf+l3+ch/YOcY1BDvbW8NSaeAgNMv2moHYm1ijc57Ka+aY5jL77+i27+c/WxgoiQp0hMc4VxiS6Q0SYE3/OTZ2W1l549sUsVi4R93q3Y/eX3/96FPtdmPcuCGNRW98Fz/7rHMt0KaOe3g+989PTbkgHmVFEgTgqcdUWUMDMOaZ8n35sFF9TSOgG1lox8jguMvWOTVzo9T5zsrdJrobE+vfxjCbYsbcavtxYBrv310JuQRs0NPYANfKzGx77HWAjH5YYDhyth32H66C8spOv18WGPEcTbLjDhsMv0sr4oU0sqUtCWBYwAAjdcOaNm/Zw9KR+W+wMh3WyEvamy37rHBpTU8RM343XhsG1i/XbKkYM8uEXBbBrn3gziOuWBcHShaZxo6up64LT55vhyMkG3swmtZsVRnkohPZ2Nrxr3dHRBlzYjQ4PRJrsiXFFJQoSZhOwWx7r993s+8dSQL/E2QQ7OyuIiXSFCWPcYdokL95RbwrgWtR1G0pFH9gwKv/9I0lmW4KQkvc/y4Of9um3zc6APLYrbcUrICOyvqKGGuHQrz0SZAbNC556dJRJRodKBG9yL76ZBWcuNIn6eyhMz/4uEYL8ldlUVVXbxaKCRjh5tpGn1Y0JinJUhAvLGDnwdb0Bvo58na0ffu7nyJdYGIP29l5+WGlu7YFmlnkor+rg0XRzSw+UVrTpPGetDfj+w50Jc6Z7Q/JoD+51oESwq/3Zl7KgrV1cLwR6k//96fEWvQ/CkOAh+vfPnVKKSRU2yEXJOcYm67vFetBAJhJkBiObu1ZFkpgbEPxdPnx3LDz+l9N8hlpbcBzlk6+LYc19MYqZe8ZI9uCxet74dP5ii8FT6Ly+HOYCoUHOEMnEzMfbgTsT+njJc6jBJq0INY1auNaysrqTfexg6eYW/jmuu8T0ub7g7xZ3BOD1pX0ZtxheONcX4qNdFDUFsW5jqWgxRxF/5D7L3NRoLLAP455bY+Df/81SwpQIlo1lHWOT7R2ipDG1W1aGszRvEBCG52JuCzz/8gXRIrh8cSBce1UgyAWKeGFJB6QfrGXReBOLWg3TlY43IBTscUmeEB7izFLNbhAU6GTy6VdM0xeXtkNuUSvk5bdAcVk7lJS3Q4+BbrIeLFKfPc0HprOUfHCgvI2T+47UwdovS0T9HTyM3HdbNMyfTXVzY/D5+kL4fns5KABZx9hku4uw2jnWzVeDzGCq/ek1o4AwHrv3V8MH68Sd3TA6f+z+GIiLltZDH13VTp9vgi0/VUERS6nrG41jndvfxxHGsfTxpHHeEMpE3IOlzS0BNMcpLmtjmY16yCtsgZKyDr2tfjGbERPlAovn+7NatBtYW0t7C6up64bn/3ORZZ3EHfBSl4TCTanhQBiHlrZeePZfZ1lpyLhlMC1Zy2rpd4EMyCLoSonO3Vzt4K9/GM1rkoRxeeujPDhwrFbU3wkKcIC//UGavobW1l44droRfvypmguRPni42/HGp7GjPGFskgevgVs6qONVLDWfldcMp882QMb5Rj6/rg84+jZzijdfxSvFCBweRt74sBAyzonrC4kKd4W/PzXW4t30jE1eYSv86YUzoATkGmOTpYbO3novgwJYsTSYxFwi7r4lEvJYOhbrrdpSUdUFm7dWwPIlxiuH4HasHXtqYOfeGt7lrSu4WndKsg+v+aKQE78EtSwwwJFfKTP9ea9ETkELHzs6ebpeJ3/uIlYSKSopgx93VPHu+PmzfMHf13jv55/21YkWcxzh/N3DiSTmEoCTEmihm/ajbqtrDYkV2KJRWjpIjOSvsoWpG1P6BzvbZQWbjp77/Wh6o0kIpsP+9p8L3IxDDM/8LgHCgw27i76xuZul1Wt4PRQXmuiCq7MtzJ3pB/Nm+EN4KK3X1QdMyW/bXcnKHQ06d9HjW/mKOX6waK4vnwowJDhD/8y/xHW14/fz58fHwKg4dyCkAf0sHn36pCIMZ+SI0iVvt4xMXIWOcPJ1OzFsWB3u6UdHgaurZdQylQKWOHD06lhGg6jaNFqlTp3gZZC0agsTiy/SSuGTb0q4yUmfyM5sHBvDZTR3roqCO2+KhgljvViKnYyI9AXLElMm+MCyhcEQyyItbLKrb+z+eVOctqC97s69tfzvBrBoHS1oDcH/vZrDR9XEcPOKCJg9jVYvSwn2VGAW6JDI8p5xsI4szPrqY5AQScNTpZjI3JQaBtdcSQYycoGLFX7YIW4zFUZet6wMAV2prumCn/bXwN5DddDdI74xKyHGDRbOC4TxSV7gJtNsNF+j2tbDx8bQ+hJNYDBibGrpYQcVdrX28Lo0dpb39WO0Mph5QFHEZrLhZBT67tvw9amDpjR8PSo7bGHt38XJhh10bXknPpaj8LCCf1cO0H3v1JkG2L67HApL20Es9nbWMHG8B6xcFgQ+erg/fr+9EjZuqRT1d+bP9of7b48FQh7++1EO7DtcA3IjdZQu9Z1J9gUsfuzUfsUcGh2Rk+uuDuXjbLkFrVr/nT0Ha2HMKDcYN0pc+hKtV3cdqIH0A3XcHU0MmBGYyKLxaxaFQFiIMze9kQI0cCkpa4PSig4u3DgOhh/RHx/T0VI5uWG0g65t3t72vDM/PGRwRh7H7fAy9lIRXNeKwojLks5mNkH6/io4fLJe6055nEs+fLwBsnJaYf5MX7hqgb/o8UDsasceCzHgQei266OAkI9br4+Ek+ww2NZuPBMkbZC6li7Z0Vsp0fnjv0pgaVJqWpIbjCr/8s/zUFevfa3L28uOd71r4/uN0ey29Gr4YWeV6N3JmFa/MiWQXUEGS9kKgbW+C9nNXLRLy9v4Iae1Td6bkLb4eNlDSJAzREe48gxGWKiz0c1w8GCzn0VeO/dViXrtIPj6mTHJGxbO9dPKgQ4PDphqxzS+tmCm4+9PjmWBg+kvGTJ1dqRXwodf5IPcSBmlSynoOKYWCTIybaI3PHJvHBDKoKi0Df760gVRHugTx3nCw3dFqv2aDhaJP/vvi1BbJ278DN3acGnGhLHeRhuDqmbp8kPHayG3sBXy2YW1XnMCRT4+1g2S4gfH9tCi1hhglgJTqmlbSkVNTiABfg7w5CNxGksnW3dVwzffiTMr+eOjSawsQwGDUnjybxk6lWsMCQsn0nenrZBkvaokgq6E6Bw3Or3w9Fh2SqcGJiWxY08VfPxVoZi/Ao/cEwXJY1SvncQb/Ytv5kJ2vnYbsHDKAXd1X3NVCEwa52XwqYfGpm44f7EJzl5o4h9r65Wx7lEqsEFpTKInE3cPSIx159kPQ7P/aA2rs1dCTn6L1n9nLCvd/OrOSEF74YqqTnjmxYuimiaXLQpmqfZIIJQDBg1PPn9a9o2HUkXpknS5Rw12tst6bF25NISJAJ2clQamazHCKi3X3uHpYl4bTEn2BCeny1++P+yoggPHtFvdGhftBg+ujoWblofzOXJDiTm6o+07Ugtrv8pnEV4JHDpWx28sYmv45gCWD/KLWlktu46nQLG8gM1uWB93NdBWNaztp8zyZyl/FygsbtOqZIHLPDpZWWasip4MPBS+9FYeNInYcT46wQMevDNOcuc6Qj2e7va8ji6mX8c4SNPxbnRBH4rOV4OM+Ho7wK/viaU3mwJBDUVXNYxecdZXG7A+jtu/Zkz2/sWfY4r9rU8K2Q1Z/d/Hxq7Vq6LZFQX+Bqp11jCB2HOwGt75JBc2/FDKIvJGFp33iB6LM2fwd1Fd2wlnMxtZOrsCTp1tgJ6ePv4cODjodyvCwxgut8GGV0z7Y7SuaVlHYUk7hIU48Q1oI0nbWgknTmtvIINNcJhqd3aipStKBIOG9EPVehlH6Qu7zUVGJF6/pzDrm0IwIkZ/BUYnrkJXuEiQkftuj4bQYGcglAn6nWNKdu/hWujp1e5Nh93HTo7WEBP5P0OXb38ohwINDUxY233y0VGQEKO/2QfW/tMPVMHn3xbCJ+x9eoaJuFjTHGOBHfnYoBYU4ASBfoMjaJ4e9nz3OH7f/fLd236mgZUjTp8fFHeM3G1trfkUCn7UFfSYwBv4zGl+/N8vLVf/eqiq6YJ5M31//v/o3//+58WgLfh7fmpNEgT6G9b4iDAcDvY2POV+LlOcy5/hMX6UbtSQVQmucDOm+MBDLK1KhnDK58SZBnjlnWyt6104Z/yHR2IhMsyZW7j+7rnzajvacQTqvtv0ey3gv5+d1wy79lfxsRicBVcCKNjTJnlzVzJs7sMxM6GfE3+/rUNpyAsXm/lImCbhkwpsRpw11Q/mzvCHhFg30JfP2EHrh53qG9ueeSKBpe2deDPlc/+5yLIt2jUqYsbv5hXhcPWVuvsjENKA3gzPvniOl3/kxNi1dKNG6JGD0XkiyAS+4TDV7m4h261MnWAWTaIKZbJoTRv6WK0TR4rmzvCBizmsTntCuHaOZZff3JcAjjqmdtuZAO49XAMfs7p42pYyKClrFz0OZwwSmejdeVMkb8bClayBLH2MP6O6Qws+hsKJqeZxSR4wn9Wf46Jc+QYxNK2RE0zLF7A6eDorX2DGA7M32Cmva9SOy3H2H62FNjV1dfR/j41ygS27qtkhTfsoDlcuX3d1OAULJgBmbnxZxurAMbnNZowbpRtN0HGjGnudvw0ygruH580g60VTAiNMjBwxFaoNaLSC0TmKa2aO8Okb6+XxOqTZcczsR5YSRucpbOxSyphZBMtKPHxXDKy8OpSn1fXpD+F2mUzcZ0315enqYpZ2bm4VZ3NqDHDr3bFT9bCPlWIwfY5mNo6O4m5ZWFvHngkcFRQCJ2BCAh3h7Y8LQVuwXv/QXXE8S0SYBvgaL2AROk4wyIWxa+lGE/Sh2nkyyAS+8dc8EK+VCQmhLCaM8YQ9h2q0nk/HrVvoyy5koIYZmntujREV5WFn7NebiuH1D3JYxqBJ1oaakaBAXX1lMPzm3jjeTGboMTu86c2b6cftXjNztB8DMyZY1sjOa4Fd+6r4pMCoOA9RBxhvT3ueXekUKI9g38OxjEatpxBw9PUPvxlFa3FNkEh2YMURRzmxAmsoyPpqExgBowj6UHS+FmRkyRVBfK6YMD0wzYr106OnGrRuklPnhjo60ZNvRBP1PdhasVSvE49aJ47z5ilb7NCWExzTe+yBON7Jbcw0L6YnR8W7w/jRnixCbuD1RzkJCnCE5YtDYTF7T8dGu4G7q50oQUfPenzucF+2KvCw1qGlmOPv/YE7YvlMPWF6oJMf7kMQei1IRHJE4qpXWerd4DcUowi63NE5dvM+cEcMRecmjLcXdmXbwYnT2s2UqwNrxAkib8AY+eKcNH4fOKM+Z7ofr+Vifb9bBoHDLAOu+8Wdz1KBke3EsV68E12uGXpcovToA4m8FIO/f5wr1qW8gIeSwyfqQF9uXB4OC+fKuiyS0JOQICdIP1Ataw8M+y93MkHfAwbGWIqXAjKyYkkIeMi0EYswHCiiOKWgL96ehnEHxFWYj9wbD9YSd0Ghm9kTDydAoJ/0/uB488PGUh8ZHBZXLA2FW66LFL1QRRWG2I8+Jdmbf0+EaePn4whLF8q7bZMJ7xqWyTa405nBBX3ISCYSZAIbYGZP8wXCPLj31mgICdRvxteQdWbsJJfScRC/9XtuiYLocBeQC8wK3HNrlKQHGazlr1wWBkoBxwLvv5PWoZoLS1n5xk3eoM+TpcfvBANjjAhd1hWpN1wbKujPTJgeOF71x0cT+Vy1rmCHtCGZM11cPV4fFsz2h5lT5D+g4kEmdal0UQ3+jg25rlafNZq4Jvbpx0aDqzNl/cwFfE6vSgkCORkwgoOqQV+hQ0YykSATOE86dYL+KVpCenr7BuD4qXooLmvnDUxo74pz5miCgvXbZj0c2NBH3ZBESRQtY6ng5pXhoBQWLwjie+lx5auxwVS/IdHHUMTD1Zav4Wxt7eGd8o6OtnzULTzUGSaM9YL4GDfeeEeYFvh63vpTBTdZkonklNRvUgxpNGNQQWdi/ijIyIqlIWBvRy4PpgQuyNi8rQx276uGFiPtAb+Y28IbYAwV8XV2S9MgtnJZiM5GOMYAvcrvujkSXvrvRTA2vQZuPMR5dl2pqO7k16WgJ/0PO8rBix28rlsWCldQs5xJgYeyW6+P5PsX5MIKbDGjnQ4GwmDHShxVYx9SQSbwRI9NS4Tp0NzSA69/kA2bt5YbTcwRjPjPZTWCoRCzplNXgvyd+AYxpYH9AxiRGpvSCu2372kCR5SMOabU0NgN73+eD19sKALCtJg20Yf3XckFCzFSDNkcZzBBt5a5dn7V/ECyYDQhWlj68pV3s+H0OWkWJnz7XQkYggFWAzh4tBaMzaKUAFAqaDxjbPYcqmbZG8NkQr7fXgZSgJmmNz/M4a8RwjRAb4flV8nuxW+wzLYhCz8pIBNoPDFfgdEMoRqMaP760gXIzpPO3AEjNFxrqi9pW8sgM0c7r3ldwa78KcnKNUWaMdnH6KUAfI2s/17/5+unvZUGmT/Xlv1HauBfb2RptZOdUAaY2ZWz4RFH2MBAGETQ5R5Vw+YGis5NA7xR//2VTJU1SWPzzeZitZ7emjjI/u43m7RfrakrMREuvC6rVNC/PD7G+AY3GFlv310BuoKWvZ8ad/20SjLONfBIvb2DRN0UwCgdXQhlxBOb48AAGETQrYwwT6ctOM40Y7I3EMqntr4LXng1Cyqr5bNQfe29bNjwfQmIyYpiCnXz1lJ44/1skCKbmpSgfFvRxFjj19GRj74sgG27xIk6Pl+4re2fr2dqvQ/A0KCov/RmFu8TIZQPGs24ucoXpQ81x+mN3nmzId/2V0AmcKwngXyVFU8dE/N/vp6l1aYjtHxNiHWFBBYF4lYxjFaxnood8YbgQnYzZLG0OVqJ+mpoiMnMaYI3P8hhAiHd2sXFVwTqbaZjbPBcs/eQ8XsJkIzzjXxLVniIC3i4q/cjwPG0Dz7PZ9F9OV/FaghwfDA60g2S4j0gKsKNb7fDg12Lho10eIDNONvAd7vb0libosGxwzaWUcGJGDkY3MKmv7+73kcSa7C+kw+syYCLiy23ByWUTVNTD/xDCzGfMNYDFs/357upVVFW2Qm79tXA/qP1evswn7/YBOdfbOId2zMm+/J94D4+jkwE+qGmrgvyWc390IlayM2XfomDr7fyt3h5eUhbEjjJhPEUi3rx+Zqa7MME1hX8fB2gv48dFhu7oKikDY6erOOHNUPg4GADM6b4wdIrQiAmUnU24kJ2I7yzNgdKK4R9DrBb/4VXLsBTa5L4v0kol2UsSt+ys0KWXQ1DYHPcc6AHeleeWf28AGSqn6cuCYHrryFvZSWDUcyL/83mAqmO65YFsbSXdp3ddQ3d8Mk3JXAuUxnrPQ3Nf/6azE2SlExjUzc89ucM6Ok1v47uhFgPePT+UTyDowm8+X/wWQ7s3Ku+LJA8xgsevjuOL/whlMsHn+ex57IKZKJxV9oKvbph9ToyojPcgAE79MSAJiH33h7NzQEIZYJrKZ978QIUl7ar/br774iA+bO0tzdFg5MZk7y5LaxSdnZrA3av40RGLMsGoG8C+pXjOkf8PQ1HBdg9vnxJMF8hq2TQ2W/HnqqfMyX4nGDUHBftBpGhznxLHVowY2NYvzJWyWvF0oWh8NiDSXxFqzbgqtkpE3yHdrYLZwewb6Ssoh0mjfem9LuCCfR3gt37q+R6zTpGJF6/pzBL905OvdSwX8ZmONx85O+j/NSkpYL17rfW5rI0ubBBiAMTrVuuC4VpE3Q7lC5e4M9tYX/YKduJWi0o4OGhTjBnmh9vIgsNdhZ0q0P7yey8Fl6ecHZS/iEVBXzVijBeX8blLe4CXvv9rNhcXtHJm8TOXGiErNxWdrNUZlQ/Y4o/3HVzjE7rWVevigEbptNpW4T9Dk6eaYD3WQT467vjgVAmuCo5Mc4dzmZK449xKdZguxz0cI7TOeWO7jbs9YvpdulWTw1hw95wT/82CeKjpdsNTWgP3rA/+LwA9hxS30h2KxPzBbP1WzyCjU8vvJYDBcXtoBRQEHBWe9miIAgLdjLotjdTp7C4DXbuq4L0A9I1GWqDD8sovPjcZL2WACHvs/T7lp/UG9mkzPSHB2hzm2LBg+cLr14AmWhkgXJUetoKnawtdU65RyeuWsU+rAIZGJPoAcsXy7vPlhDm682lsD1dfdR8+w2hotLsQqB4xkQ5w+4D0pmHqAMtW3/3cDxcmRLIO7JJzH+Jp4c9TBznBbOm+PIGtuYWZcxq335jDIxO0D82mTjOB9o7e9Wm3wtL2qCru49vsCOUB/avZJxr5J4ZMuBoDQNZBVlfnQYd0EfQXwaZmuFuvDaMpy8J5bE9vRK+2aze4WvF0iAmeIZz9sN6Z25BG9TUyfIG/JmlC4Pgtw/G8zQ0oR5sDkMLWaxVSuGNrw7s2H/0gVEG2/eePNqbz5/nFgj/XFhewTIFlisIZYGHcBtWGjueoftCH30YACvPwqyvPgYd0Kk7A2fPB2SyekUj/amTyEhGiew+UA3rNqh3Ult6hT9cvcjwPuUTx3mAXOANYOXVoXDLynByLBQBzv7etDwM7rghwqC7z8UyJtGLl/EMBb4G7rk1FubOUP86/+ybQjhzvgEI5TGTZZD0Lb/oij4LW3QSdGsZfdvnTPM12EmaMBzllR2w4YcytfPhmGJfucw4pZLwEPmMWFKXBsPKpbIveDBZFrHyxK3XRch2GBo/1vC++VgKuu/2OBibJPxv9/T2wxsf5EBFteE2yxGGAQ+bc2bI53Fio2PDuU6CLpfVK75J5s+mJSxKA2eSX/pvttqaU1y0K4tgQ4x205ZL0LHxDXdhE/qxaF4Ay97I46ft5WGcaRmcVvjNvYkQESqcVse1wS++nqm3URJheObNlE9r+nVcRS5a0OVMt09O9gIfL6pPKgmcR37lnRy+c1wInL3+zb1ROo0DaYscc9shQc6wKjUMCMNw/bWhfI5daoz4suTz+H95Yhz4+Qib1OCiotcl2hNAaE8oe3+PHSVPKU/XtLvou6Cc6faUmRSdK40N35dCrhoXOPRlf/juKD63rA267pKWo1v6rpsjqIvdgGCa865VkZLX0w21d10I7Ox/es1YtT70R0/VwcYf9V8XSxgWXK0qF7qk3UULulzpdlyIINdpiVDN3kM18N32csHHUcQffzAGgvy1S2lu+LECzl7QreNZnYGNMZic7A2JtBTI4ISHOvORPympqe8CXTh9rh527CnX6mvDQl3gwdUJfPWsELjeV924GyE9uFjHR6bdCrqk3UUJupzpdhxxoWBIOdTWdcE335UKpgkxcr3+6mAIDtTsh41s3V0NP+yoAg8P3TpLs/OkXaJy9SJpRceSSJnlJ2nm43yWTh4evOFt7Zd5sFWDkcwwUyf4wk0rotR+zWvv5dDKVYUxdYI8U1W6pN1FCbpc6XZMwU0YQyYMSgFTlO98kq+2CW7F0kB2CPMBbdi1vwa+/a6C18HDgrU7AFzK0VO63ZR1wc/HQXADF6E/wSwbNypOut/viYxaaGoWL6LYE+Lv68hF/eCxaq3+TuqSMFg4T3jSo66hi9fT+6mgrhjmzw6QbbJKbNpdlKDLlW4fHe/Ol1kQymDT1nLIzBFODY4Z5QbLtNycdiG7BdZtKPu5dq5LZJZ+oBYqq3VLm+rC9Ek+lC0yMuOTpCuvYWPnjzt0q1/jqxbHz976KBtOndXOiAT94uOjhcs157KaYMP3JUAoA2yOiwhzATkQm3bXWtAx9Jcr3T4pmYxklEJ+USt8t024bujtaQf33BwB2lBd2wVvfVz4c9q+p6ef7zwXQxNLT27eXglSgju5CeOSbITZcHWkbSmG8ipx+wDa2nuhonLw7+BWuf9+mMUjbE3gRr3fPpQkuNAG+XFnBZRWKGc/gSWDh/eUWfI0ZLP/dLKYtLvWgm4jk5jjCkZcdEHIT2tbL0sH5go+jqskH747mt2oNG8Lwy1pL72VB+3tv+wwPnBEe0/2NvZ3//N2PkuXStvh7u9HW/6MDXaEO0u4Ghmj9BdePgf1Ddpneo6erP3F/Hg9K0H9/eUz0Nis2YIYx9geuCNe0KEO17G++UEOdBm5A5/QjmkTfeSaaPEEq4F52n6x1oLOXrbLQQbQgs/JUa+17YSB+DKtGGrqhG94Ny0PgcgwzaUR3JD22vv5UFd/+Y1v+54ayMzW3One0NQDb39SCKXl0na3O7LXInp/E8YFvd7dXKR932OE/ucXMqCwWHODJfoufPJ13mV/XlTSBq+8nanVTPn0yX6wfImwjwEucVm3oQgI+cED5swp8gSW1gNWWqfdxdTQU0AG5OowJH7J2QtNsPdgreDj2MSk7SrUjT9WQE5+m+Dj735aBMfUNLkdy2iEv/07Gy5clH6phxNLl9rLYGJjieBcutRU1nSw19YZ2PhDMXSzEpAqKqo64HkWiQt1o5/NbID13xeCNlx3dQSMGSVcXsBlRxdzaZRNCcyRbyZda0HX6gi8MHVjCjtwrgGJwfm/O26MpAYkmcEb1yvvZkNru+rUtrurLfz2wViWSdF8Az7OxPiLNPVjPl3d/XD8dCMX7B6W0mxk0XhxWQccPNbAIpZSSD9Yx79GDtzYz4pb1Qjjg8t+dOk+1xec4jhzoQG27SpnEXcr9LObX219FxQUtcLmbaXw34+yNI6WZTMRDvR3gvBQ9c1UtuzQMibBE3bsreCZK1VgA+rc6X6yuCES/8Pb04EfsLAJUmIcIxKv31OY9U2hpi/UqkjFvn2tc/iGZPxoDxJzBbDlpwrewCYEerR7emh+KRWUtMPar7Tv3s0tbOOXksCoDQ8Zdrb0wjR3Wtt6YN/han6JBV8nH63LhVHxHuDjpb7nws/XEW6/Phre/zxH5eNVNZ3sIFEGq1Zo12xKGAd7e2uYNdUXduyRtgl3EFvU4HRNX6XVkc9KpnQ71s8JeTlzoRG+3yH8Ap43wwemTNDckYxNcNjRjs0+pgx24nea+M9gKnSaeEMYNsf9/T9neMOdJpYsDFG7me3HneWy740ncE2ztNMXw2irwRoFXa5xNWxCiItyBUI+ulla+9NvigT91b087VgNULv088YtFVBXp7n7V+ngwQRHlAjjgr/jxmbTd0wrKm3jkbo2YNe70CgbZoU++iIfCHkZP9pL7bihsdDWNU6joMs1rjZ5vDcfgyLkYztLLVVUCc+Fr1waBC5ajBadONMIu/bVgrlQXiVuVp4QD77uurrk6ZMwNFt3lcGpc5pNZ3BfxU2pwtawBcVtsHNvFRDygSVguVxLbWBA46SZRkGXa1xt4niyepWTZhYdfbetQvBx7G+YOUXzBEJtfTeLLMzL9ersBelsZi2VzGzz6ux++a0LWpnOoM1oUrywS97Xm4r4DnVCPqZMkGd8bQCskjV9jTY19BSQGEy3J8bQJis5+WBdAXfCUgX6Aty6MgS04e2Pi0y+bn4pJ8+SoBubPYdqwJzA99K7H2dDX7/6erqDvQ08dHciODupzny1tPbCxh9ozaqcJMa582kXGdA4vqb2u8LtauxDJEjM5GQv7hBHyEN2fgsTrQbBx6+c7wc+3prNVXbtr+VpQrnAWld0pCuMSfTkI5ABvo58jhwXXzSzG2N1bQc3AsnOa4HCktZfuH6pAzfNnTnfCONGUxbJGODzUSGirDG4JMUexo5yZ2lrR/D3sefPvSO7h7S293EDo6qaLvZabIfcglZoapEnwj1+ug7SD1TBFXPUb+rD1Hvq0jBYt75A5eNbfiqHBXP8ucc4IT1YZhzHaukHjkh+6IxcsPKHiF0blgm6DakVdLm2qyWPlqeTkADeAPfN5hJBpyvcNHbNIs2LV9BR7tvvtNsVbWiwcQV3aicleKqt8Y9O+F9qs6yyHY5n1LObZRnUN2hu3vtqUwmMSfKQbQuTudLPIti0LdqtI0X/g9nTfGDWVG8I8LNXac3pw6pCEaH/cy/s6RmA8yydv5sdNs9lSd81/uWGfEge46VxlO2q+SGwM70CqutUH2w+/boQnnw0CQh5mDbBWw5BB6v+rhT24WOhx9Uay0QlrnqUfdCYtzckeAO+9foIMlGQiZNnGuC77cK183tuieBRkDrwUPDa+wVM1KXtakcTjyceToIVLLoJYdGLGEc3d1dW5ol1h6sWBIObix1k5jQJGn0gaHgywMQnKUG6rWCWwPb0KtixR33jFzrI4Ta/R++LYr9/N24Tq63PNjbaBvo7wozJ3jBxrAf3OWiWMGLH8hNmCRZoiNJx5tmFpd2PnlLdTIoH5rhoN3aQ0W3dMKEfbux+sZO9TrUZSTQsVo0FWV9tEnpU0x0vBSQmLtqV1Y/Iu10OUIjXbSgWfHxMohuLLjT3Nuw/Us9uWtKm2m+4NhxeenYiJOjZe8HFYlEI/Pu5SRAZpn5sEg8+JeW0EctQYClj/ffq68PxMS7wp8fiIHVJoN7LMsJCnODPjyXA1SzjJOXijczsRtiWrjl7NZ+JfvIY1Y2nmMlYTytWZQNLOpHhsqxUTVH3oKByYv2cvcSfBYm5akEgxETQ/LkcpB+ogX1HVEcEeMP77YPRGsfUsD75zieF0CnRyBFu5PrL42Nh7gzt9q9rC0Z9C+cFcccvIS9tLEvksQgPtwHK4TuuDRjJ7dpXDUVl7eCJG8ycZGnm0QgeJl968yKvdQuxcK4f3H97BG+aNRRYf8c9BFFhznAxvxU6O6V53WbnN8Oc6QEanw+sk+/cq9rYqY6VhkKDnflFSA9uwss4J3mDrGdU0h1rCzLXNal6UPAuZCNxqn2Y8dRoJAsowGlbhKOGlJk+vH6uiS07K6FRonWmw2KeEGuciQgM2m67PgpuTBW23CwsboMNP2hX85Ua7Kx+/uVMXu//5KtC+Ot/MnnDoxLZubcacgqEt5yNZqn1m5YHcwE2BmOT3OHOG8PYgVWa7GBLSw9fAKOJmCg3mDZJ2DGTonT5SIqXZxJrqI6uEkFBl2P+HLs7/X1o17Qc7D1cLTgn6+piA1fN17xpKL+4HX7ar/0+c33AG/tdq2IgWoJszvVXh8M1V4YKPo4LG06caQClUVbRAXX1/3tO8fO//fuCqA5yKShh2YN164XXhPqye8LDd0UZTcyHwS75h1ZHglTs3o+b1Jo0ft2t10WDg73qW3UpK/kcOmY+pk2mRGiwC3h5Sr9KWd08uro8oeQRelK8GxDSg7OxP+4U9mufNtFLY3SOKdMvNpTy2p4U3HBNBMyb6Q9Scev1kax+q/pEjs1za78sFJzbl4s2FRa1WCYQWgsqB7g17+V3srm1qSpwfPXxB2MkG2NNZOn3W7T0WNAX9Kr/cF2uxs2BwYFOcOV84e/pm+9KtB65JAwHZvAmy+Dtrs6KXeW7ZMgzVnJBn0K7z2Vhz8Ea3pCkCg83W7h6UaCmf4KvRc0vkqZBLIydjFdeHQZSgtHhb3+VyNP8qmho7IavNysr/dnSonxHsQ0/lKrd5Lf6pnA+Yy4l82f5wuhEaYKL3IIWOHxc8/gTNmoKvfZwP/vJs5qtZQnDM36s9ILOzhHJQr7uKgXdVgYxxxEjY9VCCWHQZGXTVjW1c3Zzc3dT37iDntvfSDhzft8dsbKs1cV9yA/dFS84e/4TqwOnHxC/atNYyLC3WRTHcO5fTWboyhR/mDpB+p4aPLxhvd5WohW532wu1Ogg5+fjCKlLhA+xeDASWqJEGA/0spDHi6JXpUarFHQ59p/jTCXtmJae/Udqf1FnHQmOD141X3Na+8CxOlZ/l2YzVmyUG58Xl4upE3zgqgXCG+ZwO11FtTJq1D0KSq1fCq4W/eCzAn6gVEVkmDNct0y7TX7GIISluSeMlcZjACPs77ZptnNNmRUoeMhAx8OM82RJLDWODjYwKkH6+5EN2I5X9edChSnp6+cJVD+XGjzR/7RPOKLE6FyoGWeYJuzW/bESpGLZomCQmxuXR0BEmOoZVKyHvv9pvlpTGgLgs6+LoFWg5wAd4B64M1KyCFmI1MWBkmWCvttWwseg1IHuckuuEK6l/7BdHmdGSweDUakRqqMrRtBHxVG6XWrOXGiCPIFRIVsbK1gwy1fjv7Fzbw3fES4F6OY2c4rmbntjg7P4jz0wSnAm/2JeC0+BEqrZtb8aDp8Urvnecl0o92OXG3SUi4uSxjyksambHYw192BcuyRc8JB9Ma8ZCkvk251gqcRFyeKbol3KfajYHgkSgifxaDKTkZy9ajZazZ/jC16e6g08Orv72L8hXTMOzuNaKcQ7HTuPb79BeHf15m3lkFfYCsQvKS5th8+/ER5Ru4rVzackK8eLQsrM4cYfi6FVw2pUbw97mDdTdZMqdrpv/akCCGnB3REylIv5opZL//AyQZejIQ5TFnKn1yyN+sZuOJahenYaNXPRHM2R8I7dNRpvQIZkzChl+aajH/ec6ap/T1gafuP9XNpdPYL2jl549b0c6BKo7YcGOcG1izVPVEjJKAlHaXt7+2Hbbs0mRVdfGQo2AjP5B4/X0mtOYnA/AG51lJr+ga7LtPoyQZejIS4hlqJzqUE7UKGZ8SnJXhrXo+L60X1HpDGRGSbI3wmUxl03x/IGKlXU1HfBB5/nAzHI5m0VUFWjumHQw80OHrwzgq88VRJeHnaSZoU2by3R6GeAi4cmjfdR+Rg2Qm7fTVG61MRESl9Htxmwirz0z1S9eySP0GMiSdClpJulynfuFd5oNXeGZj+Ag0frJetsR/AU7Okhf131UtDz/eF7EgTrmsdZFuTwCWkPPkoEd5xv3SUsNEuu8Ne4xU8O8Hl1sJdO0DHjdeCo5tFHdc1xuw+o31ZHGJ7EWGU0xqm6C0WChOCNOiJElq01FkvG+SbBVHlMpDNfVqGOLnYg+GmfYXcBu7nacjc6vNDq81JnMFwnaa/Qlbo4SnfzykjBx9/7NF+teYq5g+Wd11iqXcjNDFeZLponf7OjKnAm/VLLWayX4us0PMQJAv0d+GvXkHyxoQDaNUTpifEeEByoeilLXX03HDlJh0gpwaBUhjr6ZcH3L16JcjjEYfrI20t5kZc5g97jQsyaojk6P3m6md2kdY/OccPUonmBfJc4pqowylXl040jYNU1HXAms5HPyjs4Knet7tKFIXDqbAOcPn95XwL+HG+tzYU/PJLI51Ytjf+yn72xWfXrxc/HHm67XhqrVV3Ag2XKDF9wcbHhh90QVudXtd4Zy1eYscL96tj4d+JMExdWXWhu6WFReg0sShGew8fDLb7m3v8sR+Xj6C8xbaIPENLg5enAypQOUCmtB0UkanZ62oqfDQh+IejYECe1FUWQPy1jkZKGpm7IzlXdfe3kZA3TJmm2MtyxV7wbGjY9jorzgCXsJpQ82kurJkhMd4ax7E2YiWRw0EXu6RcyVNro5uS38l3ft14XAZbEtt2VkJWtesMb1qYfuTda0YccbD677hrNBjd4IMXDCV4z2HvopuUhkF/UBj/tr+W2yGK91nfsKVcr6AiOcK79Ihd6VXgenDhdB03N3eDhTsGSFGCbBXpTVEpvKhXJrozh//OLHOYAWI8HiZk8nvzbpWTfoRpBd645U3003lyLyzqgqLQDxBAf7QbP/G4c/Pnxsfz5NteJBty89NsHRwmakWzdVQUXc5W5vtQY4G7zLzYKrwi97uogCAlUXt3cUERHuMB9t0bAs08kwhiR4295hS2Qma1+ExuK9YI5qkUf3+LHTytvA6A5MyZR+ikcGxj4hWZfIuj9kSAxwUHK61w2Z06eFbaHnDVN8+Fqxx7to3Ose19/bTg8/1QyJMRYhnEQ1tOXL1a9ahWd+V5/P8cixoqwBvyvN7IEI1Oc716yQLpteXISFOAAjz0Yw/etiznM7j6g2YFx/mzhMb/d+6k5TkoSZTBHu3SV6i8E3Uri+rmrix036CCkIbegVdDsBBt8QjUcrupZuh5rg9qA0SpG5Ddea1kpZmTF0nDBVatYS/5oXQFIsUdDzibCL9NKBEfUfLzsYfWN4WBpzJ3hA3/7QyL/+bVh78Eq7iCnjrhod8HmONwzX1RKznFS4c3ueTh+KTGRI//PJRG6xA1xLN1GC1mk49DxWkEhmTdTs83r0ZONfLOaJlDMn3/ScqLyS3FysmG14QTe7KeKo6fqeW3Z2NjayiPou/dXc3tXVeBUy+pVYeDjLfmNTxH4+zrAk7+Jg4hQZ41fi9vyftqn/nWC5Z15MwNUPoZ772lkUjqw2Rcb4yRGdYQ+1OEuqediWIjmFzVhGFDIz2YKR9djtdj/fOCo5puDG8u6oJjjWI8lE+DnCPfdHif4ODbIlVZIsz9eSmrqutSu471qvh8kxUs/s6sk0FL5N/dG8fFMTew/rDltPmuav2DfxrGT9YI9M4ThkWFRS+TI3eg/C7oclq8RYSToUpFX1ArllapToHHRrhqd4YpZ+q68Uv0stY2NNTx4V5zFi/kwMyb7wsK5qmucHZ19rJ6eyz+aC+hS9s6neVArsI4XR75WLpV/W54S8PSwg0fvjeQf1VFc1saXrqgDHRQx9a6K8qoOKKsQ18RK6E5EqCwTOZHDn/ws6AMSR+dIVDgZykhFhrpmuKmam+G0WcKyKjUCpiTT7OtIVq+KEbSsxRvtl2q6wE2NTdvKBUfUcJ4bo1KF7NZRBNg/dHOq5hn8Y6dqNX5N8hjV72FsxDxKJjOSIUeQOrLTfaSgSz6yhqYyhDQcz1AtyFjTnDhW/bhFX/8AnM9WP24Vyp7LJQsp+roU7PT/3SNJgqtWsdZ89JS0N1wbI4x9FxS3QdqPwotF7r0lHHy9aSb6UiaN94DJ49XHUnsOVGnclb5sUahgB/3p841ASAOu3JWaAbCKHP58ZNeMxA1xTtQQJxFY1ywVSLvh+JCLs/o7fG5BG1TXqE+333p9lGKtWeUGDzt33BSt8jEsb37weSGUlklXT7exNuzz1NLaA6++myP4+MK5fjBxnHJWoioJNNdZviRQbeaivrEL8ovVr+LFBsxR8ap/xzjd0tQi3d4FSwYb47DxUWIihz/5+Z1tJXHK3YdO65KBLmVCJI/WbIZw9oL6Gh7WjSaRQZBaUmYGCJoo4XatD74o4JkQU+SDdYWCdfMAdnNbrrCVqEojOMBR4/tw937NUxHowKgKTLufPkcmM1IRFSHtsrGR02nWqv5QCkLJUEYyDh1XndJFu8q4KPV9DDj6cuK0+pTdimVhQKgHI7C7bonhs6qqwEPXjzulWXtpbcDE2Lb0KsFyjh3L2Nx7R4RK73Pil1x7VYDax89eaNCYdp860Vdw1eu5LO38Iwj98feRNu0+MhgfmXuTNEKPjbTs0RWpwM7j3HzV9e+wYEcICVL/4uPp9jphcwt/X0eYMVmZm7KUhh97oz/+UJLKRTTIpi3lcF6CGy/2TRiC0vJ2WP9dieDjy68KhGiaZNGK8FBnlukSDnKqazshr0h9H4u/nxME+ql+P5840wB9fTS+JgVhIZIHqz+PrnFBZ/9H8pE1T0/LNJaQmvyiVkGr0Wgt9tBn5aiv3SWP8aLOZRHgnOp1V6vOaHSyCOyND3M1rs5UAvi9vvlRHrR3qI4aR6O16xWWYe1qKCZoaE49ckJ9t7stO6hNFpgywdfUhWyK0qUAD1ZSY21tz188XNBtJY7OMUIJDaaUuxScPi/8Jp4wRrOTmzrvd2TGFM0Oc8QvueHaCIiJUp2hamnthXc+zQelg8Y4JQKNfGicctcqy7N21RdNgp5xTvPo6Ngk4W2J2XmWsxhITnAc20riKKd/oIsH5VzQ+yVeyhLk78i7AQnjkyOQbse0a3yM+gi9tr4bKqqEu9txJCshRvoNQ+bAbx9MBF8Bm8gTpxtgxx7jLNbAuratntMIx07Vw5afVDdp4X3s9utDuagT4sC+Im81Pu9Y4qipUz9tItTpjljSpj85wWmfQInXgtsMwP9S7uyDpBs0vL2ow10K0As6V2AZC3pJaxobLCpRP0oVHuxitqtQjQ3W07FJTuggj4YzMuxW1kh9Qzd8+EWB4OPXXBkI40fTIU9XYiLU9xycuaC+Wx0bEIUWA2XmNIvey07ohtQeK8Oz6MNH9UiQEF9vsgaVgmImyD09qt/AcdGaXfqOZahPt0dFkNOfPqCr3jVXql612tXdD/96MwtaFVZPf+XdbF4WUAVOTGjq1ibUExig/t544aJmk5jEONUHql52wC/QMM9OGAahaRYjEon/wwXdSmJBD6H6uSRcVFMz0yaKKipV7wHt5kZpVX1ZtSJC0F0KzXy+2VQKhkbX8l7aljLIL1K9jhOtXe+7LULy2qG5EaZhnPfUmXqNq3cnjRe2X0aTGcL4hAZLPt3xv5S71D7u/rS8QxKE3ryYJo8OV/+Cw/p5da36ep2jA80X6wuuOH3swSQmiKp/lz/tqzKoFzeWWex0GFvLzG6GzVtVW7uiiF+3LJjMogyApmUtTS3dUFWj/qCNI8FC56psDYteCMPg4S5tsDMwMkIHiSN0N1dqiDM2eIovr1Jdg8U5STs79Tf18xc1N9CQ1athwK7Y+26PEXz8s2+LobRcvo1Z2Ij1zif50C1QvlmU4gsLZtO0g1ScPq++293R0YaVP1TX0QtL2oC2qRofP5nMZYbvyJJG6IH+lHI3Ng1N2KGuWgTQR18T57M0n+SFZpAJ8cydHgBTJqhOldY3dsPbn+SBHKBt6JdpxYLWrrhwJXVxEHkRGIj+fs1fg81tmggXWONZ19DN7g1dQBiX4EDpzWXwf6xHLkeXAozqKEI3PpXVHYLOUKPiNBvKlFZq7rBu71C+AYop8dBd8ey9oTpVV1jcBt9+Z/h6uia27a6CIyeEN/Vh3dzBnjI1hkLIBGokF7I0N8bFCvgcoHOkptE3Qn/wPSG15fGClT9E4DsxEiRE6IZFGBZ1I2dBGmYk29r7oKpa85u+sbkbCMOBK1Z/9/AonjJVBTalZeVKVwMtYunZb9RYu157VSATDpp0MCTajCrWNXRp3J4WESZ8aL+QTXV0KZAjcLWW2iXO348a4qRA6MZvY20FIRo6aYU6mS+lQMuvI7QHR47QSU6I197LlSTCamWR4qvv5UBXl+oc8IQxHrBsIVm7GprySu28B/IK1IsyRuhCHhH5hdTpLgU+3tLW0QcGuiKtB2htqllSK7BQxc/HQaMZTHGZdg1YmNbXtAGKEM/Vi4IhKUH1WGEzi8w+XFfAa9vG5NOvCwWnHNAF7rbrQ2lEzQjkFGh3SC4uVW/6hPbagQKe4mWV8jVYWhJS+60wMUdB75dU0F1olaLRwWY1oSguKkJzs0ZhcTtoA9boj2UYbqRKDlAgq2o7jS6QYkChXPNAomDK7mxmE2zeWg66gM9Ztwa3sK27KuHAMeHn9daVoRrHq6QEn7tq9noXMrwxFXAqpbZOuzKWps1rSLTARsum5h6tavWEfri6SJ9yt5Xa9pU83I0P1tiEOtB9tciQ1DX0gLacudAIs6eZZup1e3oFi3bzoL9/ALw87CEh1h1mTfWDUfEe4C6zaY6nuz38anU8vPRmJvSrOGx8t70CxozygBgtNuaNBB3oWlt72L+v+udDv+/P1xcL/v3FC/w1LhGRgrb2Xjh5pgku5LTC+cxmaBt6vaNT3fLFQWCKZJzTfhuaNo5vvgKjU7h5rbWtB9xc6F5sTJwdpQ1e0f5V8mfUy5NS7sYG/baFCAtRbyjT0dknqka752A1rFoRKYfVoV50dffBt98VczFHcMzv8IlaflmzCHlUgjskj/GGsUw0o8JdZUkv4yrMZVeGwHfbLu9ux/Wlr7+fC395YhT73TvwWndOQSs3oTl/sYllHnpVHgSQPz5/lt3sHWDqBG9+xUQObodqaOzm61uFshXhIU68EU4O0IMcI1gU8cycFigoaoe+/su/zx92VrOfyQuCAqStXxqCfYc1b1Mbprm5m/c5qIsCw9S4lVVVd0IQjQ8bFTm0Dl8NkSAhtIXJ+KhrrPHSkCqtYSk/MfPlePPfvb8SrrvatNZlYqq9WaBTGIXwfFYTv1DHI8NcYVKyN0wc680jYinF/YZrw+HM+XooUlEzxdnwD9cV8r6UcywNX1Wj/UGslh3aftxZwS885E0c5wkHjtRxUVcFOtndf7u0I2oo4mXstXz0VAOcy2qG0nLNDWNYUqit7zE5QcefUZMz40gwQ9HERF2toIcITyBgDT55jPCqVUJ/ZFhCJn2E7kIpd6ODKXdVYIe7h5v63z/W18Sy4YcSmDsjgDfcmQqeLMUeFuQMRWXqm5AwWMX0Jl7fbi5mQuHEUvLu3ARmXJIX2NkaV+DQXnfNA0nw9P9lqJz7zzineSZZE7jXXGi3+TArlgRKIpKDmYY2OHGmES4wEa9tEPd69GU30YhQ04o8cWnKt99XgFiwKVXdVi93Vzv+nleVyahroJFTYyNH2Q77nSOlbAdyIP9vo1NTqzqScXW11ZghKasQ3wGLZhVfpRXCw3cnmIxjGArx73+TBD/sKINDx2p5yl0b0H0Pr137qni0inXsOdMDYFSch9FSbDhmeOdNUfDW2hyQg0njPGDRPD8wFu2szHPmfDOcPt8Ep1gdWWhDoDocHaxh/ixfmD3Nm91ITSto+H5HFdTVixfYvIIWtYtYcHkSHlxVHfDrG8lcxtjIYLjkKfkr355cpYxOrcDNAQ1lcJxFHQ1NunW/HjhaA8ksJT17qvFu/IYG/ZZXr4qBW1ZGwsmz9UykK5mwNAnWni8FG8xOnG7gF755salu9nR/GJPgyWvUhmT+7EBWG2+GvYeqQEpwycTtN4SBoelmh8DjGY28qe3YyQbo7RMv4vhaHpfkDpPHezBh8zTJ3QJoALVtdzXogqZDKP4+0GZblaDX1Gg3707ojr291E1xEgs6WkU6kqAbnXqBOqg2HgBi6rAjwdrl2i/yIJilpKMjxHVeyw2+8aZP8uNXR0cf7D9aDUdO1kJufqvW9rYo7tjxjxcSE+UGMyf7wuhET758xRB199AgzalkNxc7mDIR/7te7L/rxp5zh5/LAv19ON7VAXmFLXAio44v+ejoVP/zYWRuKMerRlbOOX66iUfiOex3q1Mk7mgNMREuMG2iF++2dzbhMVismb+5tlBw6Y0mKms0Z9OEOt3rm8SX1ghx4GZDXCssZM5kDGylNJbBKIZ8n40LNqmhdasqXJ0135h1FXQEm8z+/VYmPPnoaCY+ku8DNghOTCAWzQviF0ZAZ5lA72FRcWZ2E2/S0hZMh+KFRIS6wPgxXjBziq/OHfN5Ra2w4UdhG1a0jb12SQRcc2UY/1wITMPGRLrDlSkhUFPXCVt2lsKmrUWCP9vOfTUwZTxmHHQrJ2BPBo5j7T1cz0oVnfzgIxa8KeLO+IVzfGH8aHe1P5+p0NbWBy+9ladTqn2YqmrNgi5Ux8XRNcK42LEMCWZJpBJ0q6GmOMkEHX9AO3uqoRsT9Hju71d9c3bVItJqbtXv5I71+3++dh6eXDOGR+umDM6mz53hzy9MW2L0fYBF79hRLvQ7VkVRaRu/cPwsPMSFz7nPmuYHcSyK11QCQerqu+DVtzOhs1P1QW1ysi88uDpR9MpG/Po7bopl6fwgeP29C3Ax7/I56MbGHnjr40J44qEYcNJyrhYjz9OsJo6d2yXlHTpF4uhmGBvpwgV8KovGPd3NZzoGJwz+8XouOzDq917T5OeOCGVXsFGukR1YscZOGAdsaDV20+ylSHrUdbC34WkIwng0NAq/yTWZyqBIGeI0WcXqc7975iTclMoixqtCzWK1po+XA8yfFcCvFnbo4ZH74Wq4mNOsdVoeS/PD4r51VzmrT9szwfKEFPZvYv1d6M3/3me5LL2quuZ588poWLUiGvQBx5v+9tRE+ODzbNi2q+yyxwtZnXfjjxVwy8pQwX8D7YJPnm2EU2ebdd7djpkLrIfHx7rCjEleWh8gTInjpxth7Zcl3O9BX/CAh6UuLGUKoc5+FMceSdCNBz4v6p4bYyCpoNuSmBudNjWpNI0jay29YCgH1J7efvjs2wImBq1w56oY9t82nwgLNwbOnOrHLxw5OnaqDvYequYRPP7c2oJzxPj38MLU3LTJPpAyI4BF8J4/v1eOslr+yTOqDUfuuiUeUpcYZv4fD9sP3TWKHyq+3355an/X/lqYPc2Hm8sMk1/Uzr63RjhysgHqG3WLNjFDMSbBjUXhnqws4SG5u5ZUdLKD8rfflcHuA4a1Sm5q6ebGQkKoWxDS0kJpd2NjK0OELmnKnTAu3WpqlDjaow5dZtA1sf9IDZxigrR8aRhPXau7+Zgi+IadMcWPX7xz+1Qti8LqWc29WdAPQBX4d/cdquEX1ohnsn9vXJInrP0qX+XXo5AbSsxHct/tCbx34MCRX3bT40Fv7VfFsHJJEGSwdPqZzGad67/4OsS1q9MnoROfmyye11KBJk17DtbCzr010NhseAHFtLm695STmqbBzm7pmrUsFXs7SYNYT2kFnSJ0o6Nu+5mm06IYhzgxoM/2uvWFsGlLKUwc5wXXXRNh8vV1VWCUPXOqP78GDVKa4ciJWn41ijgsYZZlx54KfqkiLsqdZT3iwFhgpF5Q1ALllb80mykq6YCX380HXcCMQ2KcG0xJ9oSxie6s3GDeBlO4ZOW77ZV8rl6oSdUQaFpIo65s0d1NmxKNjY2NpEGsxGNr1iToxqZdoDaHdWwc+VFHR4dx3+AoVPsO18CYRC+zFPSRYGf2mERPft12QzRcuNgIxzPq4fCJGr22gmGd+Vd3j9KqmU5XMGK+59Z4+Nu/M0Af8HuMiXD+ubHNx8ty6rUl5e2w/6j23uy6oml9MZZQ8L2vqpTWSp3uRsda4qS0pIJubUOCbmyEomx8Y2saGTREo44mUMhnmZD5jCHA3/uEsd78uve2GMgtaIG9B6vhbFYji4LFNZChxW6MwFpMQ4Kd8xPH+8DJ0+JrvnFRg93pM6f6aOzbMFfGsCzE6AQ3OH9R85pTfWjTIMpY5sT+iE4Vwk+ja8ZH6jKzxF3uVEM3NkJpNEx5aorqOjqNX1O7eWWkRbsFYoQdF+3OL6S4rI277B05WQflFZr30N+Uql9HuxiuWxaptaDzOfG5flzIvWkBE7+Rr1oRAv/3So5RD8p9Ghz28CAvFEhJ8X4npEVypzjCuAilzbkHgIbTInqyG5OkBA+WevUF4n/gXHr4Che4eUUkj9yxq/1sZhN3c7sUNKUJkdCwJynBk88xqyoR4OEwMMABprKa+GR2Bfo5msV4oiEJDnDk3ft7Dhq2s30knZpS7kPmJqqOim0UoRsdZ4mXkUn6X3MkUxmj0y3g+IW1HE39GT29BppZE+CK2YF001dDbJQbv5BfPXEE6i6x8I2KMH6qfSQo2smjfWDfkcv94+OiXeB3D8XIsifelLhitp9RBV0T2LdEvUuWg6S5TxvSc6MjFGXjm9paxjc2uibhaBehHarSpBGh0nvkR4QJ/zdJzDUTEuQI4TKuc+XmJgLv+95eSrmbG1TUJn6m14gRely0GxkLiUBVOlSOGX4/X/OeRpCCpDjjZVY0pdwJy4IEnfiZATCeoI8dJZndgdliJUOGRahMI7VHtSkTEWa8QxEdkYmR0LuSkISwENPcviYXKvsZjNvioBKh/2REKEXu2hLkL25pjhgcHKiOSfwPFPRGIAgwrvGPqwuNMolBVS9Ee6f0XcnVAkthEmJMa+e9nAT6m5fdMaFYGknQLQRcl6hpZtWYTXO40ITQDyFxNSYX81TfHtCLndAOHB2TqyEV3/N9Aqt+balsYm40Sjq2JkPG0OJwFljG0M8CPnxfy5Wgs6Z7h0YKilrhWEYtnDjToPLx0vJWkJrCYtX/zb+9nM2d0KZO8ISYSBJ3TeDrv98ITeX2GkaB+UFeQNBp6sj8kFTQ2zuoI9PYCLlCYQoXLztb4XexMTcDNbf2stQjECPADWvFpa2w/3ANE/F6vkdeHWg609jcDZ7u0niin7/YCNW1qr+niqpOfuEWMXc3W5iS7AUTx7qzyN2VphkuYWAAs2NgFDQtvMLRNKFRVkcHy7TlNWckfUZ7eylGNzZOAid2TL1pMo4xpu8wrnkk2HuAPQ+lFW2wI70CTrFIvLZe+xWr/UwYDh+vhsULQkEKtu0q1errmlt64ad9NfzCBSwJsa4wY7IXxEeTuCON7PczMGCce5+jhqY4vOcKzZs7O1GIbmz6+qSb9R/AlDt7uxWyTyJBAjo7KUI3Ns7Oqt+k/I2twdpV3apFfRGK9CwB/N1fzG3iUfihY7VQ39gFut7fP/smj4mlP3gYOUovLW+DfYerRP+9uoZuOHisnl++PvYQz2rtuGktKd7NYq2fa2q0P7SJxVHDe3YwM6f6xebiTIJubLqk3TkvbQ1d4h/OIhESZayj9WpoinM24hs8v9C4W6eURj/7faOAnz7fAPsOVRtsQUdLaw98sSEfHlydCMYCDxv//TCL/wz6gDvB8Tp4vAFcWDSYGOcKs6f5QGykM3utWU66t6RM3EY9MWg6hKPxTL/A6ZEaVY2P1Flp2wEJu9zJ1cj42KtJm3drOFC5GvEme+psA39xm3MKFg9Mp881QMY5Fokfr2Wp6B7QB9xKp+o527m3HEYnesKc6YFgDDZtLWL188sb81zY6wMjwrp68RFnW0cfO+A08Qv3rWPEPnOKF0vPuxm1d0MJZFxoBmPhomH5h7qsqB1tvzQ6xl54dSn4apBM0DFCx0Ygezt6IRkLdUYTmpoSXV2MF6GjlemFi00wbrR5Oca1tuHP1QiHTtTCaXZoadVjgxW6r4WGOLOUuh9MmeALYcEu8Ns/H+MrVkeCN4m3P74I/n5OkBDjAYbkJ3ZYWPtFjsrHHrknnj9/uBUOf17cCldapnnl66Xg7+zoqQZ+2TExTx7jAcmjPfhsu5eZrV5t7+iFvALjTSe4uan/fXV1C7/nXZyoKc7Y4PMvFVg+l/QZbW7u4asYsXGGMA6ODsKHpaYW9S8ub8/Ln5focGdIHusB4SFOPG2cndfGUqj10NUl/uT5409lZiHo+BrGPeHHWUr9QlYjtLTp/qa1ZXXlJBZtjx/tzSJWP/D3/aWr2IOrE+Av/zx1WequlaXe//HqGVhzfxKMH+MDhmDz1mL4iIm5qgzt/Nn+7L8z+NyhLz9eSH5RK2/uQ4EvqxCfWsb67rFTjfxyYBFjAkvLjxvlDpPGefLueVNn9/46Jqri066YCZk11Z9lMjzA18cRKqs74Awr3xw4Wv3z1+BuHHcNgq4uS+TkSIGVMcGDq6Z7rqHBd0whSATWcdEcgwTdeHh6CP9ua+vVd5o7sMMACgymjrGBaeWyIFg414//2TBTJ3jBgtm+8MG6YigsERednWfil1fUAjESrwE1BO0s8j51Dpu9aiEzu4m/WXUFI/FR7EY9caw3TGci7ustvEs8IdYdrr4yFNJ+LLnssfqGLnj+5dNw501x7GvCQFe6WRS34Yci+GZzgcq6eYCvA9ycGqny70ZHuPJrxdWhPBI9ycT95Nl6KC4VH7ljBu/M+WZ+rf++gkXsLuwQ4QFTkj2N2rBpLHBUc+8R8atToyPd4Df3JkJYyP/m+8ewQ9/CuUFwxZxAeOODi7yxErNxmgxr1E1RyLHsx5KoretigY+kZeZCyY/A57Ka2M3MHQjjoO6w1NqqWYQw7d7Y3AuP/yqW31BVERzoCE/8Kgbe+7wITp/Xvj6IN+xPvyqApx4bYxJlF2xAO8wizwyWSkcx16fBBQ9FE8b5sMjTh0VefqKawm5eEQVt7ACxY0/FZY9hjf29Ty/C/iNV8MCdCRAVLu6whGNw69bnQ1Gp6rSwk5MN/P6RJJbaVf/9WrMTyXDkflNqOJSUt/N+AjwAFZa0ie7qx2xQBntt4fXpN6UQH+0CUyd5wbhEd5NJy6//rpw3BYohnpVQnvndOMFxtPFjvOHZ34+Hp54/qdVrqKFR9X8fbZ69PCmwMiZlleIPtfrCXhH9RVLuaMkvagPCeOCpHSNtVSlxbYx93N3sYcJYT0ExHwZv9LffEAY5+VmiDIMusOh2++4KFlGGgBLBxs29h6th/6FqVl5oEewQ1gbcFz51oi+viU9O9tE5ykSLzrtvjWM160aeelVFZnYjrHn6CIxL8obrro6AxHhPQVHA6G7PgUrYuaecz8Sr46HVcewAJ34RS1iwM7/wecYoMf1ANRzPqGcHB/Hvf8waZOW28gszGVj+mT/Ll0WtyhV3POgeOFYv6u9gw+hvf5WkcbY8JMgZrloQAjkFmidHmltVC7olTRnIRVaOtJM9VjAgfYR+MbeFm5xY6kyqFDg72TJBv/yNrCnljuCqR0ypa4OXhx0sXRgA37JIRAyfry+A2Cg3SIyTP1ODhh81LDV25GQtHzPLzm3WKxLHUaAxozxh9tQAGMdqzs6OhnmLYUZjVJyHoKAPc+ZCPb8wFYtNdSGBzrxxCk2F6uo7oZxFDTV12nkC4HvUz1f/tKyvtwNcf00Yv/B3jVkPrLvn5LdoHKW8FDxfFZV2wNqvBksQaF4zZYIHi2xdITRIGRvgGpt6WFahRHRWYsHsIPDz0e73vWhekFZe7OWVql8v3lT2NDqnzjWAlPRZQSN7SVgXStlYj13uZzKbYMIY2o9tLFBoVaXa8GaK0Y66utuq1BC1jXWXsnCOL2zaWiFoXqEKPND9+60L8Ltfj2Y3ZHnq6UUlrUz4GlnkWAXlVR0aF9eoA5sJMTKePd2P1bw9+IHK0OQVtvyiIUoT+DxjGl0ola4N+Dt566MceP7J8QYbN0TBuoZF7Xih2VBWTjPsPVQDF/N0O0hl57fyCyP3yDBnSEJ/+WQvCA023spSddSxQ/MLr+dAQ5P4kcVFKUFaf62fryMsuSJY7df09PYLHgAvbb4kDAuWnHQZ79QHKzSWYVXVQqmrmafPNZKgG5GgACeVpQ3szm5r72NRpLDgiBFzBO1iMTIqKBZXL2pq7oG/vXQGnlwzhnfySgGml4+drIM9LKVeXqGf2Yc7i8QnjPWGmVP9eTrdmDSyw9nLb1/gh2GpKSptZxmYYli1IgIMDYoKXnNn+PNxv0NHa+HIqTpWPmgWbWqD0TC+BvH6YUcV+3ftWanDmy+PCfSXRrywCeqF13N5hC4WnPGPFtksqskYBg/1LQJd7r7eFKEbkxMZ4sothmBgwKpJlkLKoRN1cOv1ERoXCxC6ITTug01pmgRdF7ART6ygD38/L7x6HlKXhMI1V4UapVEOO9IxlX4iow7KKvUTcewKnjrRByaN94XksV68EUwK3v40GyqqVH/vEWEufDRJqPlJW7D8gTV+NAC6lK27KyEqwhWmTTTewQVNjRalBPILf56zWY2wn0XumSyC18Vhsrq2m2WOKvmF+8hxM9zkZC/eXGcMzmY2w8csza6LmCOR4YbfL1/X0CW4ac3PhyJ0Y4IlPBkotE1PW1G4IHUjSAl27B5hoj57mna1WkIc/mrqcOi1jTc4Q2Kvh+MUjnV8lVYE+4/UwMN3x/Paur5ksNrVoeM1/KO+QofNQ4vnBzMR9+EjZFZW0h5Cf9pbwbIKqm8OOPr29GODHdFnLjTAwaM17EZSzTMx2oD18StZmnfyeO+fo9in/+8Mny0fCT5H73+Wz9LZHuDmYvwYAGerZ03x4xc2dx5lh7HDx+vgLPsZe3RIy1dWd/Hrp321fIpj8ngvdjDz5OKu7/OJDnhYL8c5en3w8TL8CFltrXDKVyn9BuZINisfiR3pNQRMy3/2ci8EiRa0DHPgWC0JupEIC3EWfAwbijBaURplFe1MTDJYHdqfC2iciNo6phWzcpvgMBO+85lNUK+niGP0MmuaP0wc581r4rYyNXDW1nfCJ1/lqXwMzUYe/1XSz53z40d78euB1XF8HnzfkSr4YbvqbWmrV0WxVLSPyrGlR++Ph+deOgf1Db/8Hba29cA7H+fAEw+NAinBiY050/z4hRMIJ043MPGs4y51urhwtbb1QfrBWn55sEzW2CR3mDiWiXuMi9ZTCFgOKK/sgvRDrERwsgHa2/WfNRbaiKYP6iYY3N0p5W4s9hzSvtfFgPATpe3I/yMlZy80QUV1JwT5U+rH0Hiz0z5GHqpWNtbVG36Nqb5LPIbBbxcXmeAVHuoCCTFuEB3pyru1fbwd+Owsgjd2TEHjdeJ0PeSxiLK9XT9HptAgF55GT5kZACHsvyf3nDyK1V9fOqPSShab7p54aDQT5MujuuF5cHzuhQQ9Mc5DcAYZa9q33xAJr76bfdljKKabtpTB8iXyjBxiJmLWVF9+oZXwOSbqR1mt8iR7DeiyJwJdvPYfqecXbh6LjXJhvztXiAx1hgB/e7CxseZC28myBNhQ2tDYwxetZOW0QnWd7hvzVKHt5IEYhMo0mHUK8CNTGWOA3vlHTshQPx8yiBsZoSeDxBw6VgcrlylzHtmUwS53D3dblfU8fevIqrg0mjMExaVt/II9YDQC/J1g3owAmMFSu+Ehxqmt6srXm4p41kIVNy6PFJXBEMv0Sb5wbm4TS/dfvj51/fclLKr14O5wcoJNZNMm+fCrp6cPLua18Fn3Y6fqdWoexN4SnB0XY5RkSErLDZ+izclX/bMEskObpll3QjcwOm9rl9budQh5I3Rke3olS68GkMmBgcHOcw9Wh1Ql6OWVho0E8OYpR71IV9AkZfokf5g5xReiFGpBe/p8PXy/vUTlY1jLxwZCY4Nub2fPN/JIdCQ4CvXaexfh70+N56KqBOzsbLg1Kl4dLLNx/mIzv7FiWr7LRDY8ojMeerWPY2UTQ4AOgkJjU140g24UcMxzp4pDsBRYqYjQJQf9sNO2lsMtK8OBMCy4lrJIhZ82RiJ5hW0QE2mYiHTPwTom6tLu/BUDzk+jJ/asKf48Eg/0V3YzEKZ231qbrTKd68/q5r+5X5oatpuLHfz+kVHwx+dPXzYfXlXTBWu/zOdNjErDiZUjJid78wu/75Nn6vko3IXsZj7+p2R2H6g0mKBfzGsS7HCPjzG9XQqmwO4DVUbJtGhJIf7PkKBLa/86EjSVWL44WDGnfXMhMdadZUBUnxYPHK03iKBjN/X2PbI0gKgF+wcwEp/L0ukTx/nInh7WFqx7f7guB2pqL8+i4M/0xzVjjbqz/lLQYvTmFRHw6TeFlz124GgtTJvoy4VTqeBhDscM8cJMEvZboLf8BRbBS7nWUlv2HqqCG6+NgKBAZ9AXdOMTIiJUWeUlcwAzQ99tLQO5QNtX/Gg7+H+sG+WKsTBK/2ZzKaxeFQmE4QgLEY5E9xyqg3FJ7nwPta5gI9y6DaWsfq7b3K2hQcGLiXKDSUNmL8FBTpLNiRuKb78rgqMCI2o3r4yS5Ua8dGEwd9Q7ff6XVTnMILz9cS78NXCsTl7vUoNNjjMm+/ILa5z48xxhonfybINeVr+G5pV3M+Gvf5zAV8nqCrogpu+vFHxc3UZGQje27Kq4rDwlJf1WgxE6f9WwKlMGyMi+wzW8450wHK4sZeqgxvXtnU+LuGWmLuDCknc/Y+JzSpbWi18QH+MOt98QDW+/OA3++eeJcGNqJIQGO5ucmBcUt8JXaYUqH8MDyspl8pWlHrk3nk8ZXAoKI3bD62ObKweYDcQeisceTGSvmynw6H3xMDrBQxFGV7kFLfDiG+d0ntrA19Ff/pEh2PWPkyLetGXNoGBGLe3HUpATdInDj8N3fFnvzOgE9fm3RQYdA7F07OyswNFeuJMVm2Zef78A9h4Wt68ZR3jeXluot5GGvmDT32MPJsELf5oIqUvD+Vy2qYLC+BqLzFTWzX2d4I4bo0HO8wkK4F03RakUvOKyNtgo881MH/Bnm86i9j/9djS8+MwEuGJuAMjNqbP18CcmyrUivcDPZTbA319WPeo4DB7MnJ2pw92QoHb1yJzlSU9bwYNy/swWZn3VGZW4ajX7VDaD9UoWoaNDVEykadQ7lQ5uYkKDlbxC4SgcX4Q4ppPDInWcS1V3cu9iNciDx+rhnU8KIa9I3q72KRN84Y+PjoXEWGk84I3NB5/n8Jv4pWANGOfNo3SwBUXbT3SZU8XCeYHg6S5u7Sim1fH1gstULgW910fFuZv8wg9XF1tuJjR2lAecv9gkai2woWlq7oZd+yrYIcqaj1eqGzMrYYeqdz7Jhs++LeBz0OrAzMSkccrtezA1dqRXwPc7xG2bNAKNBVlf/RM/GdlhI3v+9DN20kmKd+PNOIT+LJznz8coNKVEM3NaIeu1HN4ZPyXZE0ICHfnqzA52Qyuv6oTsvFaWCmyD5lb5G4nmzwqE+26PV1tOMCV27i2HnXtUC+/VV4XxVaxKAQ1lsPZ8qTUs8vYnufDME2P4qlRTBy1+n1yTBP949QJU18pXF8UDxdov8yBtSwkkJXhydz/MRLk42fIxt8zsRjhwtAZKytugR4vZezQkWrHU+COPlkINy6B8uakE5GZgRMl8pKDjH0puLjMSvq7x43z482NJZnPDlpMgdrJflRoGn68v1vi1mO7Nymnhl1K5+spQuHNVjMnVx4XA9aFfpxWpfCwi1BVuuy4alIQDK+GgNewTz566bF0ubhr79OsCXpc2B/C986fHxsDfXzkPVTXy9vc0NnXDwaPV/NKHaxcHCzoEEuJAfwNcLdzeLn+QYzUiGB+pmoWgAAqL2+Cz9YWyrIo0R5ZcEQTLFmm/Z1mpjBvtDatXxZqNmGNE9co7F3hq/FLQU/zJNWNBiT8qptXvYPV0VRw9VQ8/yJ9+NBi4vOa5348xi5HaK1MCYfliis4NxZfsII6lJoXwc4Q+QtD7i0Ah7N5fw9JM8s30mRs3rwiH+bP9wFTxcLeHR+5NUKTA6cqGH4rgYq7qG8L9rKTg56Pc1PXCOYF8/EsVX6UV80Y5cwFfe/feGgOmzMypvnD7DVFAGIYfd5bD1l2VoBT6rQYuF/R+sJZ1dO1SNm8th32HaoAwDPfcEs1O6CG8+93UwC5vb0/zWSZx/mIjfLNZ9fl5yRUhMHem/J3Wmrjn1miV9XK0hn3l7Wzo6jYNy1VtmD7Zx6i74I0FzrKvXBYKD90VxxssCf1JP1Cl0mhJThSdch/JO5/mw+ET4saqCGFuuDYU/u+pcbzT1VTA/egpswLBXGho7IL/vHVB5YhaYIATN5AxBTANvYbV01Vtpauo7oC1XxaAOXH7jZEmJYozWQblmd+PZe/58J+3FBL6kXGuQXFijgwMWJ0e/vzndyMuRwcFivqbH+bC/qMUqesLumFlsRQvHpDQfMJUuP6aCDAnPlyXy5ucLgWF8dH7k0yqXovOfNdcFazyMdx8duhYLZgLPl4OsHCu6RwssZFv/+FqXucdIIMPvUExf/39bFlHGQVoHNJuzqV3D0y7R4KCwNfiR+sKobGxB66+MhgI7Wlq6YGjJ+v5LDqulUQDH1MC931PTjadbIImvt9eCgePqT6cosNdfLTpLc1IXRLKt5upmk9/7/M8vubVV8H9AGJYNC8Qtu2uMAkDrLyiVn79uLOC+/+jo+KUCV4wOtFT0f0ZSuTYqbpBR8R+5T3xA5e4vF4q6IWgQFCIvkwr4XPQ2OBlTs1Rhia/qI0vzshkN9iSsg6TPp3Pme5vNs91IcuKfL2pUOVjs6f5M2EMA1MEDYywRvvMv86wcsIvff3Rx+CdT3LhiYdH6eVNrhTQXAdthUvKTGddMILOcSfP1vMLCQ12ggljBjfS0eY19Wz4oRS+2ax57FcurNQLev9pubauaQOeNmtqu1g9K4L8iIdobO7ms+OnzjbA+cxmaGxRxrIUQzDRTBytOjp7Wd38PLd4vRRM5eJsvZUJn1ww4rvvtlj41xuZlz12LqsJNm8t5bVccyAp3sPkBP1SSss72FUG320vAzdXW5gw1hvGj/bkWwkD/U3b7c9QYBC5bn0hbE9XTje7KqwuCcJ/IejY6a70c/SxjHo+FvPre+IgKtzy1gD29g1AAYvCM3Oa4NDxOqis6pTdR9gYYE3ZXBwD160vgLLKjsv+3MbGGh5cHW8WHfwTxnrxlPSOPZffADdvK4dR8e4wJlE5rne6khjrxtPu5gKuQN57qJpf2PQXG+kG8exnRJFPiHE16YOmrpSUt8Pba3N4tlPpjBxZQ0wi5X4pVTVd8Ld/X4DrrwmFpQtN3zRFE7g5CVdYnmMR+EEm4pr8ms0BH29HsxC6s5kNLLOk2lMBN6jhvnZzYRUrh2Xnt0BRyS9vhL29uNAnD/7912TuNmfKmLMt9XDjLF6bt5Zxb/sJY7Du7gFTWHre2QwMdtSB5cm9h2vgvU/yFFkvV8XIDnfkF88QdsstSN1YCAprjFMFOsmt21AM+4/Uwv23R0OkmUXrheymeDaziQt5Vk6romrhmBmZOtEbosJcICzUmddRO1g6GVfgZl5shmNnGqBCRUQqhpAg5e/Y1kRzSze89m6WysfGjPKCm1IjwZxAr/A19yXA0/84c5klJjriffZ1Idxzm2mbtKCLn7W1FfTrecPHRsEFswMhkr2HcD85voeQ1tYeqKvvhF0HsEO9CeSkta0X9h2p4dfbHwPEsXo7rpnF9DzW3s3FtRGpqOqAD9fl8xKRqYANcSM73BFVRy7Fdbqro5jVs/70j3OwcF4ALGPRuql2cDY0dsOF7GYu4EqthaPI3nZdBIxNunzLmYuTDb9J4aaqG1PD+EFr/felUFOn23ILFAdT5+W3M6G+8fKf393VDh65J9EsmzsDAxzhnpuj4fUPsi97bOe+KhjFBMGUfBAuBdPSrFLCBB10AjdK3nlTNMyY7Kd2rn3erEDIZpHy5xsKZRf2YXLyWviFu7+xyRHLLBi94yRDRKhpBlRYclj/QzGk7682uSkgKxUZddvLv8g6fQD6U8HE2LmnCg4ereULCObN8OfNHkoG01s4K3rkZB1vasNUZa+Ca+EzJvnCXTdHaJ12mz3Nl4m7O7zzST47pIi/IfWbSMpLiB93lLKfu0HlYw+wurm5jHKpAq1G8XV99NTlplBvf5wLsUwA/C1wdCos2Bn+8JvRWq+ZjY91h2d/Nw4+X1/AGwuVBIofelrghXX2yDBnGDfaC5JZ9I7rfpW+XAszSLv2V/GmN12DDgVwmburiruzcjzdxYJD/19uLIEtOyth6iRvuHpREO8iVgoNTd2sDs7S6OzCk25tfTfIRYC/I48Surv7uDexOubN8IO7b4niK1XFgD7Yv7kvHj74PJ838ImhoUm+342+4Ba19d+rHnW5cXkkTJ9kur762nLfHTGsbNR62fpRXErz3ie58NSaJJNsuOrs6tepCTWEifmzfxgPbi7iAg38Fd12fRTg+fb7bcKibm9vA6tXxcC+w1WSR/RYDiwobuPXpi2lPJhCUR+X5AkTWRQfFKic8ll9QzfsOVQNW3dVsJKYaU8EDVgNpF/6Z5e9uvpYKd3UJ0bRUGVHehXsZmmU0QnucNX8QJ4KlvoGghF3bmELnDrTyGszRaXyjrvgzWQaE5Mr5gVCTIQr/7P/e/ms2r8Txb7u3tuidP7dObKT+j3sMFDCR2W0//mrWfYCG1NM0bbys2/y+TjhpcREujFBNy/nOyHQzOSPv0mC3z+XwSczRoLvhZ17q3hXvKnR1iZeBNzd7fgqVrFiPpLbrouERlaW239E9QpVPJh7sHT+809OgLLKdjjOsiM/7Cxl9Xjpo09MY2PpEK/Pvi0EH28HlpZ35aWW8SyKV2UXbEww25eV18w0oRKOnqhnhyPzmAoaGLC6LPi+7BVmSo1xmkBBPX2+iV++LFIfzVLA0yZ6Q0Ksm9G6bcsqOuD8xSa4mNsCGecaZa/LYJ1uOkuXT2fROBpJjGxkwUjyrJomEBTxB++I1vsg5OhoA/feGgV/femC1m8m9DxvYKdpU0tN4wa1Ayr2VmOm6LcPmmZUqitBAU5w04oI+Jzd1C9l/XclMGe6HzvwmVbXe6UOu9GvWxaud6YQG/HuuDEKTpyugw6BKRecpsD3eUigM4QscYZrrgrlr8fdByq5wDe1yJP1wkMFXodZlg4P6Ilx7pDArjEJHuyjcZrrUMSxqfhsZiMcPFbLe5TMCXYXLWRaXXjpnwsdGU2qMU4bahu6YM/BGn6hyGETRyJ7MUVHuLB6niP4+zmI9tFGsa5nL9RzTMBzC1q5BWZjk/xpHGxYQZ/tBXMCYdI4b8GfC7d+9fUJC2zyGA+DdZvHRrEUHPv3Ms42avX1GNVl5TTBbB9/MCXe+/TyZjB8vT1wZzxfvmJpXL0oGAqKWvlNdSSYRUM7YhR1U+KsyH4QP29HlokwzGgtdsMvuSIYNvxQovLxiywKReH0GdqCh4eAUfEe/Oq/cwBOna1n978qFmjUqzQ5kgLMumHAg9eG70v4vSop0QNGxzORj3Xn92U7kRE8jvE2NvfwzEQ2K2XivTivoMXkmtzEYKWifo7Yqv5i02yM0xaM3NHfHK9hsIkDm1W8POx4VGjPbsJOvNN6gFtYIm3sI86ENzX3snp9L7Sy1BK+kJQCujylzApgNe+An9/U6rh0XvhS5s8yrJjOn+mntaAjh0/UwOzppiXoTSpeD6tSo2DSePOZNxfLrddH8jHM8ktGGU1pEQ2C943jp+tF/Z15s/0NuqVt7gx/QUHHeX8MXFS991Hc8TWIV0trD4/0f9pXyevtco7EouieOtPAL8SDlScwm+HCyhO+3vbg7mbPRwXth36Hw/dgTOvX1HXyRUdobdvSIs8BRUbECHr/aUvbz9PV1c8tHUvKwKTw8rTnjScL5gTxRhQxN49GDY1n0ZGuYEjw38PvT9tufuwSx681pbWVD9+TAC+9eYHbvSKzp/rDimXmYXuqK2jT/MTDifDU38/8bIqEh090jzMlTrPXo9jIdqyB3fGCWTodG1qrqlWn/nGOXRNurnZ8JTFeuHnxNIvYf9pXcdmBSw7wQNykoCBJqahqiENUCjp7ySreAtaSsbVhdfHJvrw2PnWi7jO9TWq6PJ2dbMCTnZYNCc5f41WvZT0Lb56bt5bAyqtNRxCTx3jDv/86CU6fb+A3TnyOCFZP93eCf/55PJxkkZg1u7nMnR4Ajo6mdZfZ8F2JqK/HqZAAf8OXWSJZWlpI0NWV0FSBQQBeqUvDWWmkBXburYQjJ2vMruZsblzqEDeMSkEfaozDkD4ZCMWA87szp/ixm6E/N6jQlw41u33tjNCJijc4a5Gjb1t+KoXFrG5oSkYzAX5OcGWK5dXLNYElrcULTNOqGWu++cXivL2x4c/RCFvmvIxkiRwV4Qb33e4Gd66KZil5FrXvreB7wGmfurJQ5RA3jLq7ZDqQoMsOrmtEo4450wKYUBh2ExLa50oJ1r7aO8T50GM0/83mIrjzJtO2DCVMFxwJe/fjXBALvt472GVoD/SWNuOmpO3tbLhHBV44q733UBXsP1LFe45M3fDJHBBqiEPUvNKUvUrVnPF0t+ep2nmz/CEyzFW0oYu2jEn0EJwNb2/vM3j9Gvezt+vQXYtp93FJXnwDFEFIzefri6BaBzcxTH/jGKshza2wGfekmsY8JyfDjgFiJvDqK0P5hY2NR07UQPqBSj7ySshDv9VAmtBjgoLeD9YmbzBjSqBwomjNYen05DFeknQAr2B1s/QD1TySuJSe3n7e0Tt9kuG6s/cdrQFd+e9HWfCPP03SqnufIAwFrkrVZyc2pq3RMc1Q4Pif0Bx6bJQbjB3lBcYCF8nghU2ep1kqHoX91Ll66Ooy/+2PikKgfo4IHucKs75qjEpctZp9avpLjBXMqDh3Xld89P5RfPtSeIiLZE5KOA6CIyzoI6+KKnYKXzDbX6MZSiuL5jGiRwMZIdBk5/Nvi0FX8CZ2+GQtKz/4se/bvNc4GgLcboZiooqF8wIN3vBojuw/UgPvfZoH+oCd48GBThAWIry8BKNuTGUPb1wTAkvZr7+fxUe2VPHAHQkQLMF6V8wY4hrZWVP9YcmCEAhnIo/+G/UNJuuJbjIMGco8J/S4JuVIB8Lg4KjZ1VeGwCvPT4Ln/jAerl0cJttM7pXzgwUFu6ikHTLOa54bd3GyhhffzOLpRVXs2l8Nb3yQA/pSww4YTz1/SpSFLEHowtebiuHND/V/zaJQv/JOFl8Eoqq3DNPYz//nHBNJzYf4vQerBEfLxrLs3uQJ0nsdYH8ATiz839MT4INXZrGsXxhl0YyIlQZN1qAi/XuY5q8GQm9cXWy5qcOsaX4wbpQnN3pQAjgPfNX8INi6S/WClu+2lfNZWnW1dDwQoK3sH58/A2NGecC0Cd7cnAcdm3DrFtbODQWaSTzxzDFYfXMsLEoJNkmvd0K51LJa+cdfFYg2kNHE22uzYSu3ZvUFbyZ4OC+emdPMu8lvvyFKY68K1uM3bBEem7tlZRTIDZrC3HZDDL/QsGbb7jI4c75B7XgsIY5+UD1/Poyt+r9MdXR9wDfp6HgPmD3DHyYzMVeqMxZmC7btLlcZQWTntcKh47UaLTqvSgmAn1gkjtaYZy8Yd9sTbrt679McbmOJfQD6zOITBIKlpx93snr5nkqdGje1obC0jV8jQb/7hVpYw6JPe4VAdJ4Y6wHxMcoy6Rm2nMVS2fHTdbDvUBWcPFNPI3B6Y7VH3aNqFQbN381lUYuUoJPT1GQfuIal0k2hVonzwVfMCeSmEqr4enMpTGXpPHU7jjH1dsM1oUxo80EqsvOa4Z+vn2P1SWdYekUoLJgbxE13CEJb0PsbZ63TtpTJIjY3XBPB/czVgYeNLT8Jrzi+5Xr5o3MhsE9nzjR/fuHq0p17y9lVIcsWOFNHaCHLSLQJGbFFfg0QasG08wyWTkNhHJtken2Eqaz2tfdQtcrZdHSNwm7faxeHqP03Zk7xgQNHa+HCxWaQErTsfeeTbPDycoApyZbrmU6I55vviuFcprT7w4eZNskHZmuxnCb9QBXUCgggdrWPTjCN+423lz3cuDySX+eyGmF7ejkcO1EL3b3mu0TFkFhp0dOmRUa9/zQQasF01z//MgHWPJBokmKOYJSOBxIhtu6u4t246rCztYbbro8AOTaEYhfxZAtegELoxk3L5bEVRifGO27UbJbUzKJzoWUsyL23xYEpMibRk68T/u9L07n7JaEZdfPnw2gUdFZH1/iPWCqYZr7rlhh49nfj+HymqXPHjdHg5qY6aYOOUT/srND4b4Sz9PfCuQEgNffcGgcWtGqcMBA4uz1bhhWuqUvCwM9Hczf4pi0lggthcCETOkmaMl4e9vD4Q6Pht78azYMKQg0D6uvniEZBR89YKxpfuwycw/zbH8bBkgXBJrUNTB1ubnZ8BEWI77dVQIEWftbXXxMGPj7Sja4kxHqw1CPZJRC6cd2yMEnfw2jhfM2VIRq/rqS8DbbvVn2IRs8HLJOZC7Om+sG/npkEyxaFAnE5rH6eLuTfPhKtmtgHwDodiJ9ZujAYXv7bJLVmEabK9deEg5uL6ii9r38A1m0o0vRPgIuzDdx+vXSpTG1SlwQhBI5uXjE3EKQAs0i/vidBrQnTMG9/nMP3hati7owACAk07ej8UnA74d23xMJTa8aCvT3NV41E26Baq9+aNZ9HJ5DVN8fA6lXmKyA4WnfdNcJinJndAsczNM/oTh7vzaJ944+T+fo4QmKcae3VlgIaDxLHkgVBGh0RDcEKlmpPiNX8ek0/WAU5eaodHHHz4E2pkWCuoF/HS89OphT8CIT2n1+KVoK+M21FOvug2TLMjEFjmL88MRaWXhEM5s5V84MhIlT49P/Zt8Vazereen0Ed8UzJlJFVqYGzuoT2oNp8NgoVzAm4ew9de1izSlltFD9ZpNwJgx3l+MCJ3MGS5ovPTcZpk+ihjkcV9u9caVWQbWYvIbFNsdh89uTj47hnZmWAHo133p9tODjOEKDs+mawGj/9hsiwJjgQhuCMASJscbL9OB+hl/fk6jVKtXvd5ZBjcB2tyB/J7OqnasD7x+PP5QEyxZadl1dTA+b1oLO/tFNYIHg6sNnHh8LcdFuYEngxrdpajat7TlUA+ezNc+bT53gDVfON04UjanHcDPsYyDkYVS88QR91cpIrSZhcD77+21lgo/ffWucRdkdo0X23bfGwpIrNDcRmivajKsNo7Wg9w2eEiwq7e7mYgdPrRkDURHGTcUpFWxQEXKx6unph7VfFIA23HhtqFHGa4ICnbioE4QhQBtWYxDPIv+rF2kWJFxj/PZa4YUw0yb5wsRx3mCJ4Lz9ddcYN9unWLQYVxtGa0EfGl/LAAsBVxk+8eskbitqqeCM6DVXCae7Kqo6YeOPZRr/HUcHG5ZujOE2kIbE1ZlWgArR00PuW2JxdrIBBwfDvkZxFPSxBxK1+toNPxRDdW2nysewK/72Gyx7mgMX0OB2SEtC23G1YUTOBliGyQymee69NYbvKrd00AAjJlK43LDhh1Iu7JoIDXKG2ww8yubrQ2sahegmQRcNHjidHAw3LoVd87+5N4GX7TRxIbsJvlOTakcxM1YGwZS4h2UN0e7WUhiAgbVivl7Uq7cP+j8GC2DVikhYMIe6pxGcB129Kpo39agCp6Pe+CAXuli6UBPzZvob1EXO0BG/OYF7uAl5uXF5BIwfrVl82jv64JW3M/mKVFWgm93ShZZbQx4JZk4fvicBwkMtpXfGStTIuChBtwTXOHQcS11CbkUjwbnZK1OEVzwWlbbBd9vLQRtWpYYZrPmIolBhOjs1H7AI44F7BVYu0+4+8unXedDYrHpnOO5HePCuBElm5E0FPx9H7gNv7r+SoXR7oZi/o0N+yXzT7p6sZvzIfdrVuyyNG1i0gU1oQvywsxJOnGkATWAt8ME7Y8DdTf/6d2NTNxCq6egiQRcLHhA7uvQ/JAYFOsOj92snwgeOVsNP+6oEH1++NAyiwiyzKVcd6NJ5y8poMGfEptsR0YJuzmn339yXYBL7y+UA09u/ujOez6irApuwPvmqEFraNBvO+HjZw2MPxgum8bWlplZz7d5S6ejQ/DwQvwT3jnfpeRDCJrin1ozWqrkOvdo/+CxP8PGocFcW5VtoZ7cWrFgWZubeIOLS7YjoO6q5pt3RHc1SjGN0BS1Wb14RKfh4XUM3vPpuNmjjOhoX5Qr33BoF+tDE0pRCXteWTkcHRehiEdo5ri3YTItjrgFaWJai0+KLr1+AVgHHRVsba/j9r8cIjo0Sg02HD9+daJBsn9LQJd2O6PhqMa+0u4+3AyxfTHVzbUDrytGJHoKPZ+W0wDfflYA2zJrqC9ddrfvvvb6xi6J0ATqohi6aiwLe6dpy16oYiNHSs+KLtCKorBF+7d7J/i1/P/Iy1wT+jpYtMj/nPF3S7YhOgm5uaffFC4JpBEoE998Rp9bQZfPWcjh9TrvRyeWLg2GuHvuoj5+uA+Jy6KAjniwtnA+FwMmYqxYEafW1O/ZUwPbdwk2k40Z7w2IL2BlhKHD7JVrimhfi0+2IToJuTmn34CBnuPpKGgkRA755HrwzDuzU7JB+7YMcqKzWLCqYprxzVSTMnaHbZrYjJ2qBuJy8QuFoE+1FiV9Sz8pF5y/qJuhoS7pymXZRYlZOM6+bC5WlAtl765F7E8Cautq1BoOLVSv1K98pCV3T7YjOBZoBM4nSVy4NtShvZEMxfbIvOxkLp8u7uvrhH69larWVDeuEd98SBbHR4rt5s/OaoLyyHYj/UVzWBo3NwhMA2qy/tTQOs4OhLitnZ7D3wV03a9dtXcVS7K+9nwX9Av8dbkRzXyJ4e1K2UCyzp/nzDW3mgK7pdkRnQe8frKOb9FE/wN8R5kz3B0I3Vq2IgGg1NcPa+m54/YNcrZrksAnoj4+MUvvvCfHlRu085S2FfYer1D6OUWJpBR2Chmnv6GVlIs3bAy9l7gx/eHB1vFZfiwfbf75+HmrrhBvvcDQ0IdYDCN1YvcosrHGZplrpvAhNZ0Ef8pddCybM8qtCybBBD3CE7dH7E3lToRBnM5vgrY/yQBscHazhd7+Oh4hwcS5QB4/VwMVc3euf5kQbEw6s0Wpi174qIAb5cUc5NLWIG/ObMNaLZZW020/Q09sPb32cA6XlwoeoWVP94ToaUdOLCWN9dAoIFEaaGO/2S9FrJsLahFeq4huRonP9QX/pJx5KUlu2OHi8Fr7drF0EhBvunv5NoihRxwzA+5/lgA4ZU7Pjm81F0NLSo/HrduypVBstWgq1dZ2weZvmBUMjQdH43a9Ha73p76uNRWp7Pfz9nOChuxPA1paCC33A2GzeTNO27B6w0j3djugl6DvTVqSDiabdUcwNvVnJUomJdIU7V0WrbeRJ21oG29IrQRucnW3hiV/FQ2yU9qft/KIW2LSlGJTAgEwni+raDti6Sztx6u0dgI++yLfoQxA+T//9KJdF0Nr/EtCr4vmnklmJSDvx/W57KTswCB9m0Z0SZ9cd6V5kEBalBJnsSmX2KizcvXGlTt3tw+j9KopKvMWRfSspYGLgidjDDA0J5AIXSGAtMjtfTXd1ZjP4+dhrtVgBMyiTkr0hO6+VdyBrA3Zvh4e4QGiwvIsb3vjgIuDtXuomnb++eEaUOUpFdSd4e9lzRzIpeeODbPD2tpe9+etDdqA5elL7BkFsgHvi4SStxXzrrnL45Kt8wcfxAIzmMfExtNXRUGAvTklZG98vYWowQX+lMOsrvQRdbxuifuh/FUyMiDBXCAu23D3nxuL2G6MhZaZwGQM3gH2wrhBOn9cuqePmYgtPsvS7tstc8N9/88MsHq3LxffbSiD9QCW89dFFyMmXrq7/9aZCyC0U/3N/9k2hpDe/TVtL4cDRWvjPfy9CXlEryMXGH0th5x7t+wjmzw7gDXDaivm+I9VczIUyINi7s/rmGBg32nJWgUrFFfO08wNQIHpPjukdobMTRWd04qoU9mkkmAhLrwhmIkHdpIYGM+5JCZ5w4WKTYFSNons+qxniol3VNtMNg413s6f5QXNLLxQUaxYeTJ+eOtPAN8Rp8+8bkp/2VfBaPoKWtBnnGvj2PkyrGpPPv82Hb78rAl3A1DsesEbFuRv9+9zCItbPvx38Pju7+vjzFB3pwrdnSUUfe/1t+L6E/b60czNE0Kdi9U0xWtuwZmY3wb/fyoTePuFU/g3XRsLKZeFAGB5/X0fYc6gK2tpMZ5/B0Oy53sGxQQo3MYmritg3tBpMhJtSI8DXm2Y9jQEuXJk20Zd3nrcL+Imj2B3NqIfEWDetRBcPCuOSPPBFDxdzNUehmPrfx97Qzk427OAgTToTO8vfWftLH3v8PvYfqWLfuxdLbRvn9bbxx2L4Kq0Q9AGfp5NnG2D8aE+j+WJ/x+rIn337y0MHivrh43UQG+3Gb8LGpqu7D978IIc9V9pF5hhFowMcXtZaelXgtMVf/nmGHVyFv2bujAC497Y4IIwHelPkFsiXqRPLAAw8y4Lj06AnBhH0/KyvCqMSV61hnyrefNiLRSG33RCt9RuUEI89i2TQeAbNOoSWhGBkeOx0A0we7w1urpqbWPD5Gp3gDnbswJB5sQU0tTFhJHbqbD33NI+PHvx7xgAzDh99kQdfbChQ+T1hxmDXvkpeU0+I8zDY6w4PC69/kAk/bBfXoS0E7k/fd7gGnBxteZOjoaY56xu64NX3smHnXtUi2seiWDS6Yb9GfsAz1hhpTn4L/OetLK3d4PD18gBLsS9ZoL0Fa3ZeM/zfK+f4a1uI8WO84PFfjab7j5GxYm/3fYeqwRTAZrj0tJV3gQEwWGulqTTHYZfqnBk0rmZssNN0fJInHMuo42KhCly5up/VU7WN1JGEGDfuKIdLYLRZQII32b2Hq9hBzkGrZjwxoL3q318+A8dOqfeTx6gdG/ZOnK6H4EBnvaJRjGr3s/rsv/97nhvEGBJMEWOZoIDVtkODncHTXfcUPB44drKDzFtrc6GoRL2JDQrgeVamKavogLgoN4N2KaOhy9ov89lVCI3Nmsf5EDdXO3juD+MhWUR9++SZenbAuggtrcJpXswWPf7gaD7FQRgXPJiiX766sodSYEe7tIKsrwwyAm4wQY9IvOk0+8b+CApnzkx/SKL6uSR4MEGIi3GHQ8dqBd9YeDPH9HscS7v6abkgJ8DPkdXq3eHshSbBtP5IMEtw+EQN7371Y2Lqo2f6G+e3P/0mHz76Mhfq6rXrwEcam7phz8FKqKju4HuzMVukre0wzpbvYRHHe59mwzZ2o2o34npU7H5PP1jN1+F6su9TTLmgmX2f+Hy+/VEuO3jUsgOI9uttS5mgo2eBi5MdBAc4gq2t7lmV9s5ebp7zJvs+LrCoXNvbOh4onnpsDISKmFA4cboO/vtRNl/nK0RwgDP7d8carfRC/BJHRxs4wA6+TVoe4uSEvUNWsHS7Qca/DZr3uSJ14272xkkBBfMn9qYaN5r2nktJSXkb/OGvp9SmIrGj/ZF747hQa0sDE8ivNpbwKF8M2Kg2h9Uxp0/yAxcto6Vulk04f7ERdqaXw5nzjVww9AVNeWJZ1IYlATQrCWT/325IxDASr6jqgMLiVl46wI75tnZ5mnxwJDGBZVEiw1z4dIgrK5HY2FjzDAt+T2UV7Xxc7nxWE8tatBrksIELgKZO9IY50/20Hv/D8gdmFw6frIP0A9XQKrIpavpkP3jwjlhREfS+w9UsC5Gt9rWNGZl//mWSWe7tVjIffp4DP+w0TEnKiKTtSluxAgyEQQV9YerGFHba2A0KZu1rMyjlJQOZOU3w4hsX1N5k0SnrrlVRMG+m9utU8Sa+aWsZbPyxnH8uBhxBio1ighrrzmeBh8098N/BdD6KVUlpG9SwiPxsZj1v5iOkBw8+4SHOrDTjzsTRAezsrXlmo7cXDxR9/DBRVNoO5zIboalFfESGr7sbr42A1KXi9mqjYcy6bwsFl60gwYFO8Nc/JIMXLVyRHMxkvftJNiiZAauBFH3NZEZi8M6M+akbT7F/NBkUiCuLAj98dQYQ8nDoWA2891muWlHHZqGbV4bBkgXiZkkxOnznk3yob9Q+BU4QWH555L4E0WU47Nr/9Bv1S4FQzP/wyBjZjY4slbPsgPfsvzJAqXBnuLQVBt37anC/wZjB5rjFoECiIlxgwWzT9vo1ZcJCXHhj2pkLjYLRLgY7WBvH+fP4GO27njGtOW2SD9/Brs0edoLASYzHHhgFEWHaCy6WQrDJbuOP6ufY8bX+59+OY9kFMrCSC5x02aLglPsADKwxxKjaSAwu6BGJN11kt+AHQYEjbJFhrnxvLiEfmD4dnegJB47UqO1AxUYmbGjB2WhtRR3tYmdO8eWWmhfzWmhZC6ESLLk9cEcc3JQaqXUPBYIlmFffy+KvXXXgxMYLf5pIDXAyg30Nm7dpbyAkJYYcVRuJwYdzB1e/Wb8CCsRUTfvNDZxzfuZ34zTOn+/aXw0vvJql9bjRMKlLQ+AvjyexVKcTEMRIsPnwb0+O57vMxYy8V9d2wp9eOM3d7dQRHuoK//nbFGqAUwA2NgavKBsM9p2lgxEwituGUv3dfejErBhQ1J9loq5p/jwzB523zkF5ZQeI/ff//tRYuG5ZCDg4GMdUhjAd8OZ+88pIFjknQ5jIpTmnzjXA7587ybv51YGmMf9gkbkrNd0qAiULOis4PgdGwCg7+9DfPSpxVSQorDluwjhvGBVHM+hKAefUpyT7wIGjNWo7yLHjfPeBavDytOejU9qCqXdc7DJ9og+3jDWFmVTC8GBUjvXsqex1INaJbuMPxfD2xznQ06O+fpMyKxDWPJCktd87YXxwrBKtkRXI2t1pK/RexKIKoy3hjUlc1aQ0f/fJTNDjaFWhosDJg9nT/flCF5wrFwK9sU+ydCeOKSXGuWu99Wr4v7FgdgA4sxp7SXm7KLMTwnTBWjnaPD94Z5zoFDjWy19j9fJtuyvUfh1OZVx/TSTcc2usoiNCS0Spgm5II5lLMZqgo7+70rawJbOUGAm68sBmtikTfPi8d2m5+rQmGpecudAEY0Z5iGpowsAM3ejQrKSLCXphientSya0A6PweTP94ek1Y/g4mlh7+PyiVnjmn6cht0D9elfsycEDA21NUyYKFfQ0Fp2/A0bCaIKOKG0L27gxntxAhFAeaOoybZIfX9ahyaO8sakHDh6r5Z7bYlLwCN6EJ47z4iNx6B2O/xZhPsREuMEDq+Pg2qtC+eY/sWxPr4A3PsiG5lb1rwtcNfvwPQk81U4oEyUK+oDVwIMsOtdt17EWGFXQlRal45pGXM5CKBOMpNCW1cvLgTfD4RtSiG5Wc8cUfENjD7clFXvzxrn1+bP8ICjAEfKL2wW3whGmAfr733JdJNx/Rxy3jRULCvi//5sJP+4sh55e9SWZiDBX+OMjo1n0T/cSJaM0Qced57vTVhqlGW4Yo7djsnv0c0rxd2+mpiiTYOGcQBiT4AnPv3wWqmvUm8Rgs9xploJ/8I5oUT7wCKZmcW59xmQfFplVwcYfyqBVJr/0S/F0t+OZBG8ve25xWlXTxQ85UmcUsFcBrXHRKMXJwZodoLqhqKwNCouVUbLALM1t10fCrGn+OkXkyN5DVfDJ1wV8sYwm5s0IgHtuixNV7iHkoU9hm9YGYGAtGBlJujiUsrRlznR/eOTeBCBMA9xOhunPMxcatPp6tItdsjAQvD11W/uJqy+/314G+47UaXVzNwajEzz4qF1cjOtlHdl8DWtmEz/EHD1VD8YEMyWLUoL4ClHcXHUplVUd8MNPZbAjvVK0h74hwEbHFUvDeMpbk5+BEGhB/PFXeUzQqzWaEGHz2y3XRbH/JtXLTQW8f9yz5iAoAWPYvKrCqCn3YZRSS8d1lXNpF7rJgEKCzxd2K5+70KjxpotNTMczGvgNHpd5iAVHjlDI5s7wAy8WIUvdEX/zynC46+ZI8PVxUDlehX+EqWW0uMWmQNwJb+gNbB7s537k3kS4eUUEhAW7CK4wdWWR8cSx3rzREDeOSYU/+/mXLgyBNfcnst+Bp85jYoeO18L/vXIOsvNaNH4tlmd+/8gY9roIAMJ0qGvogi0/KcP61Rg2r6qQRNCVUktHK8CrrwwBwrTA9aJoF3uWiTrOpKsDV3eiqKMY4wz68AY1MaBIYL/FFXMDeCRYXtmp8b+rLwvm+MNNy8O0npNGkyQsF2RmN0ODgdLwuCv++SeTuUhr+30Esno1fu35i01gTPx8Bmvkv74nnr8W7HRMr+NN/qMv8uDLjUW8D0MTCbEe8MwT49kBkRasmBpFJa2QfrAK5MZYNq+qkETQESVE6XhTvvrK0J93ThOmg58PCpgfNLX2QHGp5votivCeQzV8zWZkuCv/KBasH6O4XTk/AGKjXKGmtkvtrLyuYD320fviRB8+8OAxnUXrR0/V8fl8fcAyxfN/HA++3uLdFIej9HYjNBZiEyvWyB+4Mw5iIt1EG8MMM8DSO99tK4OX387ko4+awHvErSzF/vA9iSpLDoTyyTjfACdO14HcSBWdI5K9UpUSpU+b6MNuXmQBa4o4Odmw58+XR2v5xa0aO9Oxy/UsqzkfPVHHBQvXWeoCOs4F+juyeq0/f/1gzRibwwyVjh/L0ufzZ+lWCsJIddxoTzjBshL6ZBF+9+skvrxIF9BQpbu7D85lGSZKx4bAa64KhXtuiYVrF4fqtX4Un6tTZxt4B/t+DQuBhkmIdYe/PD4epkzwBcJ0OXaiFi5kGzdzpAkpo3NE0qOnEqL0eBZNRIXrduMilAFG3GjjiSY0VTWaV6Vi89PhE/VQXdvNF7ZgGl1X0HFswlgvuGJOAI9m29ihor5Rv5Q3CvL4JN1HoNz4z2PFDy+6MH92ACxbqF8pCvfQH2E3UF3BbMOoeA+4idXu0XVt/GgvXs/Xh4rqDvjw81z4gqXXtWlyxMMR1ud/fXcitxkmTJu0LSVQWS1uB4ShkTI6RyQVdCVE6V4eDjBpvDcQpg2mqbFJCQUWx7mwP0ITxWXtfINbXUM3RLNDgT6pVFtbK4iKcIF5M/1Y1O7N6s8OUM/+XeyUF0twgCNM1vM1GRLoyEsMXd3iswYYCeuSah/JyTP17EAhzs0S0+do44tlMBTxJVcEQ0Soi94lsZr6LvhifSET8zwo0HK8LjDACR67PwkWLwgRbAQkTAf0Evh6U6HBm0bFwO5IGSw6/xVIiOTDlHLPpZ/LMoqFLiETV80PZmLoA598UwCHjtVo/HoU/t37B8e+5k73heuvCdN7oUZIkBO/li0M4u5zKGzpB2tYBkG76OBsZjPv4NexPMzBSYBxozxh/1FxUTJ21GMDoL6cOa/d+wr7EmKi3GDOND+YMcWPz5EbCszEfL+9lEVmpVqP0uGhInVpGKvTRwNhPuQXtvCVt7JiNbAGJEZyQd+ZtiL9itSN6XKJei07vdexy8eb6ujmAj6Xjz2QCFMn+MAXGwq1eiO3sZv/lp8q2SGgjqXP/WE+S6F7uusvLsPivnhBEC8H4Nz4MVbfzi9qg/YO1dECzstu3lYOyxcHgz4EBzmCWNBVTZeGwZFcuNgI5y8KCzqOEU4Y6w2jEz1g+iRfcHI07G0HsxLfbyuF73eUiYrIkhI8WHYijpdwCPMiU+baOaBn+8aVe0BiZLE7kjNKx0apE2fq4MoU/W6ehPKYNZWlv5lgrP+uGLbsKod2LW7ujc09sP6HMvhhZwVcxUR43gw/8Pc1zGEPZ8bxwvG3fhaC5+S1wnl2o8GPRaVtrK77v+/v2+9KICneHeKidRcXezvxJQR9D7YX85rh1fcu/sIjwJPVn7GkMS7Jk4mmJ0ujO+vcna6OhsYu2PBDCRxkmRkxpQ4s09x7Wzx/vRDmyeETmrN1xoQVvh4DGZBt39+C1I0fgUwNcthw8/RjY4AwXzA6/jKtEA6yFPTAgHbpV8TR3gYmT/CC1CUhvLPdWODBEmv6uNnr9PkmqKru5KNnv74nhkeOurB1VyV89q24vQ9LFwbD6lUxoAu5BS3wz9fO85pzSJAzbxZEEff3dQIHB+PVoStrOmDz1lLYd6haVM8Afk9XXxkGqYvDeImCME/q6jvh/scPg4ys3ZW2QrLO9pHI9qpmb8Pn2Fs+lX0q+YaDzJwm6OrqY29wmi81VzAyfvS+RBZx18PXm4q5+GhDZ3cf7D9SCweO1sHEcZ6QMtOPC5WhwY7qmEhXfi2aN7ixCzvF+/WYhOvTwYJVn9lxHAX8x58ngIe7PW8SNCZYE8f+l++2l0EWy3KIEXLMDuB63ttviIbgQPEOgoRpsXNfJcgJahvIhGyKhgveoxJvYSHQQApIDJr2YyetrpEQYTqgk9mCOYF8IxvuQBfj0V5R1QmHjtfBYXa1d/aDn7c9X79qLHAvvLOT7m/JE6cbICdfs2nKSGxsrGHhXN1WgDqx3wX+PqytjSfmrW09XMTf+TiHb0LDTIaYpRsTx/nAo/cnwrUsKjdkAx6hXF57N9Pozo5CMDF/Nj1txSaQCVnzTv3Q/yqL0rETUPIo/eDxGrj+Wlq0YAlg+Xb8aG/45589Yd+RGvh2cxHU1HVp/ffLmbB/s7kEvt9RDmMT3fnc9phED7CSrWClGm0c0C4FGwixO1yf2XxjcC6zEfYerIIDx2o1rjNVBVq2rlwWDpOTfYCwHLLzmrm9rxygiQz78DHIiKw5Zxald0Yk3thlBVaLQWIwUkuK9+CLFwjLACNJNBVasjCEryWtZaLeJGKlLo68lVV2snR8Lfy0r5p3p2OE6uVpZ5SmLzHkFbTC+u/FL6JAP/NgVv+W22wJHdyKWAblu22l8PYnObB1VzkUlraJ2uSGz8GYUV5w3+3xcBul1y2SDz7PgbKKdpADNJFJT5O+s30kiogx5qduPMW+kWSQGFxV+czvxgFhmaBAHz9dy6LvYigp0/0mgJayY0e5c/e6uChXo6agVYGi9+p7OTzlrgsB/o4sezHBqOUEVWCzInbJnzhdD8dO1bESRwcMiG8D4EKePMYLrrsmAkbFURnNUsGVvo/+6ahWJlOGRqr1qJpQRJ6NpQkeY0m13SAxuCEqO7cZ4mPdgbA8sJFr+iQ/7g9/9GQdbN9TwTe6iaW8soNf23ZXQViwExN1N5g8wZuPoRm7WQz5fnuFzmKOYF36601FOne7iwGb2S7mNPH33oGjg659YmriI8HGQlzheg2rjyey97DcWRJCXtatL5BFzJEBGUxkVKGYd8AVqRt3yzGbHhbsDC+w6MTejuweCWAp9Q7uNnaI1W6FjGC0BR3osIs9eawnJES7QWS4C19kYkhOnmmA/7ydDfqCWvjg6niYP8vwO7+xrpmV2wQXc1vgREY9n8nXB2xuW3xFCCyeHwyeHuS5TgAcz6iFF149BzIh25japShG0FNSN0YyST0FMjTI3X1LDCxeQEYzxP9AMd+RXgk79lZAdY1hLCRxDhojSRT4mAhXfpi0s9P9LYgd+O9/mg9dPYbZ+oY8dFc8pOgh6pj+z8lvgdzCFjh9rgGy2eftBvLTjo/x4L7v6AhoRwdwYgjc9PfbvxznJRs5YO++qPS0FYWgABSVo1qQuukZ9ut5FiQGa4f//utE8PEiO1jil2AweT6rEXbuq+Ae7S0thlv2gNE6inpCrCuEsDp8WIgz3/uuKepsae2Bz9cX8+a8ASNkGK+cHwTXMuH09xNuGMUmtqambmho6oLM7GZ+M8VZf2xI6jFg2hPfkzh2OGOyH0SEkUUrcTlfbiyAbzaLM1QyFENjarLNnV+KogSdReme7BvCBrlIkJgJ47zhyd+MBoIQoqm5GzLON8Dh47U81T1gBDXFhjoUdV9v+0HrWF8HcHO344dOzBpkZrfwJjJ9DGG0wcXFlru+YeOou6s9/2/jTDg68OEu+sbGHmhs1r3+rQ5XFzuYNM6HC3lctLtRXecI06a0vA3W/OmYUQ62mlBKI9xIFNdFsjB1Y4ocDXIIGlCQvzOhDQ24//tkDew9VKO1Cx0hjKODDTtAeMH0KX4wa4q/JM2EhGmDB8wnnjkBNXXybFXrh4HV6WkrZZ07vxRFvmsWpG7cCIO2sJLixiKDfz07gVLvhChqajvhQnYT7DlUzevHaCtMaMbT3Z6vUE0e6w3JY7z5alWC0JZ3P8mGbbvLQSYU0wg3EkW+gzD1zpJsBSBDgxymGP/yxFgagSF0Asdm0HP85Jl6yDjXAJXV0jfqoElMQbF41zhjg+WExDh3Xg9HAxjsH6D3GaELB45Vw8tvXZAt1c6u+UpphBuJYt9NKanr11iD9csgA9T1ThiK+oYuLuwXcpqgpLQNikrbRbmfiQHH5O65NZbXudd/X6z2a3E/OdrhYkNRp5EyCm5udnzf+vgxXhAf7cHFXGrzGsL8qK3vgj+9cIpnxuRAian2YRR9PJZrNh1vOn96fAzERroBQRgSvBmVVrSxunsrFLIoOq+oFerq9PeeRrc33C4XG+UGa7/M44tM1IGC/qffjoOLuc3w2nuZemcScNkRLsKJi3GHUBZ5o3Obn7cjrSklDEpfXz+fNz91th7kQImNcCNR9LuNxQ13yTGbjh29L75+AV75+2S+AYsgDIWvtwO/kll0PAx2rJeUtbKIo4unynFPelHp4GY4TdE8LlXB2ewVS0N/Tl+3tGoeresbGl1PiHWHf/91MuzeXwlfbiiAVi1mxt1Z5B0S6Awx7MAbFekKoUEuEMnS/FQDJ4xN2o8lsok5gql2UDCKfwfKNZuOLEoJgvtuiwWCkAMciyspb+dp+2Im8DgH38RE3sHeBoIDnCAp0YPXoy91OXz57Uw4dLxW7b89OtET/vqHX65P6O7ph5On6+DA0RqWSejkAu3n6wRB7L+F0be/jwMXbgcHOuQS0oOH3d89e1yWujmitJlzVZjEkVqu5S3Iow8kwqwpNMpGmA7/evMCHD9Vp/ZroiNc4cVnJwNBmALNrT3w++dOyFY3V3qqfRiTcGxgv0zZxgPeWZvD058EYSr0dmtucuvtkynMIQgdePODLNnEHFF6qn0YkxB0lubIYN/qsyAD2AH82nsXDeZHTRDGpleLpvXOTpqVJ0yDbzYXwvGMOpCLoVR7IZgAJuOpuCtt+XPslJQBMlBS1gZrv8o3is0lQRia3j7Ny1o6yPyGMAEyztbDV2mFIBeYald63XwkJmWSzH65K9gH8QurDcCeg1WwZZdsrkQEoTUdWkTf/XQ4JRQOLvz579qLsjXBIaaSah/GpAQd0x790C/LaQlfVJ99UwCnzzcAQSgZbdLpbVRCIhQMljhfePUs1NXr79GgK6aUah/G5NYYpadd94oV+wAygDPB73ySK9veXYLQhq5u7faj9/VTlE4ok8/X5/NVvHLB3hnpppRqH8Yk9xL2DXa9y5J6r63rhFffzYKeHu1umgQhNd3d2tXHKe1OKJFvvyuSc+nKsFe74havaINJCvpg6l2+X3h+USu88cFFinAIRaLtrnQ6lBJK48jJWr5fQN66+YDJpdqHMUlBR9gvPI19eAVkAp24Nm8pBYJQEmImMWhqg1ASRaWt8O6n2bKKOeMVpS5e0QaTFXSExRc4ylYIMvFlWiHvficIpSAma0QZJkIpVNd2wj9ePQeNjd0gF6glqClgwpi0oLMovXForECWejqeJD/+Kh9OnJbP9IAgRiImjd5NKXdCAbS29cK//3uei7qMNA7tOJdFSwyFSQs6IucoG4Ivxg+/yIeKaup8J+RHzK51qqETSmDd+nzILWgBOTHFETVVmLygIzjKNgADstU90GP4hVfOQ2OTfOkigkDEeLRThE7IzQef58ja0T4Eq5uveBXMALMQdGQArNbIWU+vZBH6S29egPZOMuwg5KNXhEjTfgJCTtJ+LIYfd5aBnJhD3XwkZiPoctfTkez8Fnj341zo7aVmI0IexHi0azuvThCG5qc9FfDZt/kgM2ZRNx+J2Qg6MjSf/hjIyMFjNUp4oRIWipi6uLaOcgRhSM5lNsC7n8k+nsbq5gNrzKFuPhKzEnSEPUFrQcb5dOTHneXw+bcFQBBS0ykiQu+gFaqExGDz8HMvnZE9iznYBGe68+ZCmJ2gI7vSVjwml9/7MJu2lrIaUQkQhJR0dmofdVOXOyEl5ZUd8NTzJ0VNYhgDXMNtij7t2mCWgo6g37ucTXLIug2FsHkbuckR0tHdo33UTSl3QipwodXf/nMamlt6QE6GfNpXgJlitoKOtRE596cPs259IezcWwkEIQVdYlLuHdTlThif2vouJuZnoLpGVuMYZLgJrhDMFLMVdIQ9cRlyN8lheunDdXmw91A1EISx6erSPuoW0xFPELpQ39gN/3jtHFQpwHjLXMxj1GHWgo4MNslZPwsy0tvbD+99mgPHM8giljAuYoxlqIZOGJOm5h547sXTUFAkrwscMiTmZmEeow6zF3RkV9ry5+R0kkOwXol71I+cJFEnjEe7iDQ6ReiEsejs7IO/v3wGSsvbQAGkmWsT3KVYhKAjQ05yGSAjKOr//u8FitQJoyEm6u6n9amEEcDI/A9/Owl5hfJH5kNOcHeBhWAxgj7kJLdC7s53hCJ1wliI8WcnR0PC0KCYKyUyH+poNysnOE1YjKAjQ53vstrDIhipv/ZeFvy0j7rfCcMixp+9t49q6IThwAa4F988p4jIHCygo10VFiXoCD7B1gqYQ8TU6Aef58EuEnXCgIiJ0KkpjjAUdQ1d8NeXTkNmdhMogX7ou8vSxByxOEFHdqatSO+HflnH2RDsfn/301zZNw4R5oMYf+w+qqETBqC6rhP+8s8MKClTRAMcdrSvSU+7Pg0sEIsUdAR3qMs9zobgnPraL/Phiw2FQBD60kP70AkJQTvXZ5iYV1bJP2eOWMp4mhAWK+gIjrOBzItchtn4Ywl89m2B7BuICNOmV8RK1E5azkLoQUFJKzz9fyeV4ADHGRJzixhPE8KiBR3BRS5yz6gPs3lrKaur5wJB6IqYPrd2sn4ldCQrtwn+8o8M2b3ZR7DW0sUcsXhBR3anrVwt94z6MNvTK+Dvr5yD1ja62RLiEeMUR8YyhC5s213G0+xiJiqMCd67WWBmMbPm6iBBHwJHHJQi6qfPNcCfXsiAuvouIAgxiIm6KeVOiGX990XcxlopHgZ4zx4aRSaABP1nhoxn5ivBeAbBZpO//OsM/0gQ2iJm2xqOrfX1U9MGoRlc+vPBulxYt145fT7Dq1AtyThGEyToI1CaqNfUdsLz/zkLew/TpjZCO8TWxcktjtAEur+9/M55+HFHKSiFES5whUD8DAn6JQy7ySlF1HGX8Ntrc8hVjtCKjk5xo2h9vTS6RggzOGN+Co6dUo5VNYm5MCToKlCaqKMBzTsf58DnLN1FERUhBBrFiHV/o8Y4Qgh0fXvq+VNQWt4OSoHEXD0k6AIoTdSRTVtK4T/vXFBMdymhLHp0iLa7SdAJFWzfXc6tXBsaldOYS2KuGRJ0NShR1I+fqoc/4Km5QjmnZkIZdOkgzs00HkmMoKOzFz5clwPvfJKtKCdBEnPtIEHXgBJFvaq6E/7277Nw6HgtEMQw7R3iBb2puRsIAsEx2ZfevAA/7FDWbgkSc+0hQdcCJYp6Q2M3vPx2Jny1qQgIAtHFt0BBTl+EjOTmN8OzL2ZAxrl6UBIk5uIgQdcSJYo6sv67YvjXGxegpZVSp5ZOZY14zwLqxyC2p5fDU38/pTjPCxJz8ZCgi0Cpon48ow7+yOrqZy6Qv4Ilo0uE3kQRusXSxg5zr76bCe98nK04gyESc90gQReJUkUdTWheePUc94InLJO8wlYQS2m5MnZYE9KSX9QKf3juBOw9VAVKg8Rcd0jQdWCEqCvC+30YnEN+/7NceP39LErBWxj43FdWi0+ZVihkjzUhHTv3VvDlKhXVynvuh73ZScx1gwRdR5Qq6si+wzXw2F+OK67BhTAeZZXtTNDF76XGNH1jE3W6WwItbb3wwitn4a2PLipydS6Juf7YAKEzhVlfdbLrncjEm6KswCoZFAQuUzh8vA6srKwgPtYdrNlHwnzBw9uxU+IPcLhuNXmMNwT6OwFhvpw5Xw//9/JZyC1oAYWydnfaiiV4TwVCZ0jQDQB7EaZFJd7CPhtIAQXR3z8A57Ia4fipOkge7QUuLrZAmCc47VBWoVsK1d7OGiYn+wJhfqBRzBfrC+A9VoprU+5Ewyu70lb8Cgi9IUE3EAVZX+5RoqgjuC1p3+FqcHCwgdgoNyDMi8bmbvjoizxeR9cFNKS5Ym4Q2NpSBc6cKCxphX+/dR4OHqtRzMrTS+kHeJZF5k8CYRBI0A0IinpE4o1NLP2+GBQG2jieOtsAeYUtMDrBE5wc6ak3F06dqYf9R2pAV1pZbXXMKC8I9KO0uzkwwNR787ZSeO29TKiuUY4X+6UwMV/D6uX/BMJg0F3dwBRmfX04InHVaVaxRlF3BIVRUdUJew5WgauzHUSFuwKV1k2fLzYW6m0KghHc9El+QJg2OI729/+c5e9xXTM2EtA4YDWwOD1t5VdAGBS6nRuJlNSNkeyXu5tdkaBQpkzwgQfuiAN3NzsgTBO0AP7V745Cv545VXt7a1j7+mxwsKe0uymCUfmXaYWweUuJopaqXArNmBsXitCNRGHWV42Rias2sU9Tmah7ggLBqG7PoSpwc7GDyDAX3hFPmBbbdpXDmUz9HQIxmvNwt4f4GHcgTIvcgmb4+8tn4RCrlSvN8W0kQ2NpS0jMjQcJuhEZEvWPmUwmwuClOHC8Da1jM3OaYVScB7hSJ7zJgCKMJkIdnYbZaV7X0AVXzQ+hMoyJ0NTSDevWF8CH63J1sv2VmLVMzG9mYl4JhNGgt65ELEjd9AxA/7OgYDDteu1VoXD9teE0t24CYPfyK+9kgSF5+rGxMHGcDxDK5tTZenj/s2ydzISkBjvZmZA/B4TRoQhdIkZ0wE8HBTbLIRjxXchu4iNuocHOEEBdz4oFa6avvJ0Fza2GXa6SX9gKC+cFgY0NHeiUSFVNB/z3w4vwxYYCPp2gcBr7wfrB9LTUV4GQBBJ0CRnqgMfOTsXW1RE0oNh7qBqKStogIdYdnJ0oDa80cAnPnoPVYGha2AEhKMAZIsNdgVAOeIBDEX/j/YtQVKr8hTpDzW+sXp66DQjJIEGXmBHNcilM1ANBwZRVdsCu/ZXQ09MP0RGuYGdHHdBKoKm5G/77UTY3hDEGOPp0xZxAer4VADa5ZZxt4KNoxzLquFWv0mHfYTq7VrA0u2HrQYRGKK8mI6ZQVx/G39cRbl4ZCbOm0qyy3HzydQF8v70UjMmKZeFw2/XRQMgHmkCtY1F5xlmTWrKENq6PASELFKHLyFBdvYjV1VNAoXX1YTANf+RELZzLaoJEloZ3c6XZdTkor2yH11na1dgUsCh9YrIPeHnYAyEtNXWd8M2mQniT1corFbjiVABeL9+dlkrObzJCEboCMAUTmpGg5/eMyb6wakUk+Pk4ACENvb0D8MQzJ6Bcoh3mwYHO8PLfprDnm24TUtDV1QebtpZA2o/F0NWtXHOYSyGzGOVAEboCGDGvjlH6dFA4uMWtuLQNtqeX807b0CBncHamxjlj8/XmIjh6qg6kAhvkOpnITBjrDYTxwN/x9ztK4eW3M+HE6TolW7aqYu1QvZzmyxUAHb0VRkrq+jXWYM1q68rtgr8UFycbuHZJGCycF8hd5wjDc/JMPbz45gVZbvZ/++MESErwAMKwoEUr1sc/+zYfyirawcRoHJovp5E0BUGCrkBMLQU/DKbfF80LgqWLQviObcIwVNd2wjP/OiObGxhawv79yQkQFEi+BIYAR9AOHK2BjSy1XljcCqYGpdiVCwm6QmGi7skkESP1NWBi+Hg5wJIrgmHpwhCqv+pJY1M3PP/yWVbikDeC8/J0gFf/PgVcqLSiMyjk6O73dVohlJpeRD7MKywyf46Juf4LBAiDQ3dbhcNS8KutWAre1KJ1xJuJAFrJLkwJpIhdB7BX4Z9vnIdTZxpACcTHesDf/pBMhzSRoJDvPVQFW3aWQ05BM5goLMXed1d62vVpQCgWemeaAJiCtwH4iKW5UsAEwRG3pYuCIWVmAI/eCc10dPbCu5/mwoEjNaAksEHuiYdHg6MD9dNqor29F46eqoWvNhVCdY3yPdeFGDKKuYtS7MqHBN2EMCUjGlW4M2GfNc2Pp+MD/akeKwRG5u98nAO7D1SBEhk32gv+8MgYEnUB0LNhR3o5pG0p4ZMCJgw1vpkYJOgmhqk2zI3EydEGJo33hmsXh/E97MT/6Ozsgw+/zIP0/coU82GmT/KD39yXCA4k6j9TUdUBu/dXwLbd5aawOEUtQ7vLV1BUblqQoJsoph6tDzMq3gOWLQyGZJbKtfQ6OzqEvfruRcjOM406axDLsjz/ZDJ4elp2GeVsZgO34sUZ8gGTGiFXDa07NV1I0E0Yc4jWhwkKcILFC4Jg5lR/8HCzvFl2jO5efOOCyXU/+/k4wpNrxkJEqGVlWnBpypafyuDg0Rq4mNsE5sBQVI618gwgTBISdDPAXKJ1BDuo587wh7nT/SEpwWS8dfQCU7RfpxVBi4mmaW2sreDuW2PZgSwEzBnsVsdNdDv2VMCREzXQ3GLS9fGRYK38FYrKTR8SdDPBnKL1YcJZ1DePifu8mQHgboZRe219F3z+bQGfTTaHVO3saf5w182x4GlmC12wHn7wWDXsYAevgpJWs3iuhqEOdvOCBN3MMOW5dSHQzGTCOC+YPysQxo4yj6j9+Ol6+PjLPKgy4XEmVfj5OsJ1y8JhUUowmDI4aXAxpxn2Hq7iYm7qTW4qoA52M4QE3QzBaH3IZW41mBloLztjih+kzArgS2FMjeKyNvh6UxEcPSndkhU5iIlwhXtvj4f4GHcwJXDpEAr4noNV3HLXTEnrH4zKye3NzCBBN2PMMVofSXiICyxdGAwTxnpxa1IlU1vXBRt+LIb0A1V8DaqlMDrRE+68KQZiIt1AqWAtfN+RKtizvxLyikzPW11b0IMdrAZW7964cg8QZgkJugVgTk1zqrCysoLEOHeYM82PCwh2zCuF8sp2+G57Gew7VAXdPZYj5JcSF+0OK5aGwaTxvoqwjq1hB6zDJ2r4qFlmdqO5H7J40xv7+CpF5eYNCbqFYM5p+JGguMdFucHkZG+YyVLz/n6OIDUdHX1w4kwd7EivgLzCVr4mkxgkNMgFZk71gwVzgnj5RCqwQ72wpBVOnW2AA0eqobSizSIyJdT0ZlmQoFsYKSs2LLcasHrFXNPwI7GxsYJYJu5jEj1g4nhvJvTGq+eiaJ/LbGQRXz0cZ1FfQ2M3EMI4OlizrIonJI/xgskTfCGQHbzwMGZIevsG4GJeE5xmIn7sVC2UV7VbTLkDZ8pZen0NpdctCxJ0C8Xc6+uqwMUw0ZGuMHWiD0SHu0FosJPOItLC6q4X85uhsLiNO7uhmKOAELrh5WEPUew5GT3Kg38MDXYWvcinq7sfLlxs5I1tWblNLBqvhx7Ly45Q97oFQ4JuwQym4a3vNOf6ujocHW0gMswVQoKc+GgcOtR5e9n/bEGLbmAtLb1Q19gF7W290NjcA5U1nVBT28kXcBDGBZe/4Ew79kR4eTiAg7012LELjWzwuelhAt7Z3cefj7LKdmhizw+Om1koVCcnSNAJy6mvE4SZspaJ+XNUJydI0ImfGRL2l9mnqUAQhKLBhjdWJ3+W6uTEMCToxGUsWrF5Xu9AHzbOJQNBEIqChJwQggSdEMQSG+cIQqmQkBOaIEEnNELCThDyQUJOaAsJOqE1JOwEIR0k5IRYSNAJ0aCw24D1neyGkwIEQRgUEnJCV0jQCZ3B5rm+gb41QF3xBKE3JOSEvpCgE3pDc+wEoRdrB6wG1pKQE/pCgk4YjGFhx1Q81dkJQi3k7EYYHBJ0wihQAx1BXA4uTWGH3rV9AB+TkBOGhgSdMCpUZycIqo8T0kCCTkgCpeMJC4TS6oSkkKATkkNjb4Q5Q9E4IRck6IRsYNTOPtzJXoSrKWonTByKxgnZIUEnFMFQrX01DNbaPYEglA8KN46cpVE0TigBEnRCUbConYl5fyql5Amlgil1axhY2wdWmygaJ5QECTqhWAZT8v0pJO6E3AyKOKTRuBmhZEjQCZOAxJ2QGhJxwtQgQSdMDhJ3wkg0Dhm/kIgTJgkJOmHS8Jq71cA86wGrVJpxJ3QARTut32ogDQas9pCIE6YMCTphVgx1y6Owp1D0TqgCU+l4WVkNpFN3OmFOkKATZgtF78QQhexKs4KBDOpMJ8wZEnTCYhiuvVuD9TwSeLOmEDACh4H0AWuH9F0blhUBQVgAJOiExcIF3mpg/FAEn8zeDMlAmBzYyGY1KOAZJOCEJUOCThBDYIrezspmPNbg2f9NHhL5SCCURCEMCXi/FRPwAavTlEIniEFI0AlCDRjFM5GPGCHykRTJS0YhDIl3n9VAIXWhE4R6SNAJQiTDkXz/QN/PAj8wKPLkQa8bhezKwI9DjWun8XMSb4IQBwk6QRiIYaHvgV5PVpdHgceUvSeJPaeQ/R4arf4n3IUk3ARhWEjQCUIimOAnM8H36B/ojRwAq0gYjO4j+5nYD9XqTVX0h8W6EAaNWgYF2woara0cMvr7u5tItAnC+JCgE4SCGNw2B1i398BI32YAI3yryKGH+ceRjXpDh4GRBwFP0P5g0Dh0/cyQKGPn+MjHCgcfG+Afra1smVjb8M+po5wglMP/AxY5vN7N99QpAAAAAElFTkSuQmCC;" parent="AWK6ZrYGQ6Bk1Ji1PFGg-58" vertex="1">
          <mxGeometry x="220.00333333333333" y="12.667777777777777" width="76.66666666666666" height="76.66666666666666" as="geometry" />
        </mxCell>
        <mxCell id="2" value="Internet" style="whiteSpace=wrap;strokeWidth=2;rounded=0;" parent="1" vertex="1">
          <mxGeometry x="-150" y="-1060.5" width="73" height="34" as="geometry" />
        </mxCell>
        <mxCell id="AWK6ZrYGQ6Bk1Ji1PFGg-21" value="" style="edgeStyle=orthogonalEdgeStyle;shape=connector;rounded=1;jumpStyle=arc;orthogonalLoop=1;jettySize=auto;html=1;labelBackgroundColor=default;strokeColor=default;strokeWidth=1;fontFamily=Helvetica;fontSize=11;fontColor=default;startArrow=none;endArrow=blockThin;endFill=1;" parent="1" source="AWK6ZrYGQ6Bk1Ji1PFGg-115" target="AWK6ZrYGQ6Bk1Ji1PFGg-60" edge="1">
          <mxGeometry relative="1" as="geometry">
            <mxPoint x="313.5" y="-933" as="sourcePoint" />
          </mxGeometry>
        </mxCell>
        <mxCell id="AWK6ZrYGQ6Bk1Ji1PFGg-32" value="" style="edgeStyle=orthogonalEdgeStyle;shape=connector;rounded=1;jumpStyle=arc;orthogonalLoop=1;jettySize=auto;html=1;labelBackgroundColor=default;strokeColor=default;strokeWidth=1;fontFamily=Helvetica;fontSize=11;fontColor=default;startArrow=none;endArrow=blockThin;endFill=1;targetPortConstraint=west;" parent="1" source="AWK6ZrYGQ6Bk1Ji1PFGg-115" target="AWK6ZrYGQ6Bk1Ji1PFGg-25" edge="1">
          <mxGeometry relative="1" as="geometry">
            <mxPoint x="368" y="-916" as="sourcePoint" />
          </mxGeometry>
        </mxCell>
        <mxCell id="8" value="" style="startArrow=none;endArrow=blockThin;edgeStyle=orthogonalEdgeStyle;jumpStyle=arc;endFill=1;strokeWidth=1;arcSize=20;anchorPointDirection=1;fixDash=0;noJump=0;flowAnimation=0;ignoreEdge=0;orthogonalLoop=0;orthogonal=0;enumerate=0;comic=0;jiggle=0;" parent="1" source="2" target="AWK6ZrYGQ6Bk1Ji1PFGg-76" edge="1">
          <mxGeometry relative="1" as="geometry">
            <mxPoint x="210" y="-1043.5" as="targetPoint" />
          </mxGeometry>
        </mxCell>
        <mxCell id="AWK6ZrYGQ6Bk1Ji1PFGg-118" value="&amp;nbsp;Firewall &lt;span style=&quot;white-space: pre;&quot;&gt;&#x9;&lt;/span&gt;" style="edgeLabel;html=1;align=center;verticalAlign=middle;resizable=0;points=[];fontSize=11;fontFamily=Helvetica;fontColor=default;" parent="8" vertex="1" connectable="0">
          <mxGeometry x="0.2759" y="2" relative="1" as="geometry">
            <mxPoint as="offset" />
          </mxGeometry>
        </mxCell>
        <mxCell id="10" value="" style="startArrow=none;endArrow=blockThin;edgeStyle=orthogonalEdgeStyle;endFill=1;strokeWidth=1;arcSize=20;jumpStyle=arc;rounded=1;" parent="1" source="AWK6ZrYGQ6Bk1Ji1PFGg-76" target="AWK6ZrYGQ6Bk1Ji1PFGg-68" edge="1">
          <mxGeometry relative="1" as="geometry">
            <mxPoint x="426" y="-1032.9999999999998" as="sourcePoint" />
            <mxPoint x="700" y="-1033" as="targetPoint" />
          </mxGeometry>
        </mxCell>
        <mxCell id="11" value="" style="startArrow=none;endArrow=blockThin;edgeStyle=orthogonalEdgeStyle;endFill=1;strokeWidth=1;arcSize=20;jumpStyle=arc;" parent="1" source="AWK6ZrYGQ6Bk1Ji1PFGg-76" edge="1">
          <mxGeometry relative="1" as="geometry">
            <mxPoint x="368" y="-1015.9999999999998" as="sourcePoint" />
            <mxPoint x="368" y="-950" as="targetPoint" />
          </mxGeometry>
        </mxCell>
        <mxCell id="AWK6ZrYGQ6Bk1Ji1PFGg-22" value="Firewall (UFW)" style="edgeLabel;html=1;align=center;verticalAlign=middle;resizable=0;points=[];fontSize=11;fontFamily=Helvetica;fontColor=default;" parent="11" vertex="1" connectable="0">
          <mxGeometry x="-0.0664" y="-1" relative="1" as="geometry">
            <mxPoint as="offset" />
          </mxGeometry>
        </mxCell>
        <mxCell id="AWK6ZrYGQ6Bk1Ji1PFGg-41" value="" style="edgeStyle=orthogonalEdgeStyle;shape=connector;rounded=1;jumpStyle=arc;orthogonalLoop=1;jettySize=auto;html=1;labelBackgroundColor=default;strokeColor=default;strokeWidth=1;fontFamily=Helvetica;fontSize=11;fontColor=default;startArrow=none;endArrow=blockThin;endFill=1;" parent="1" source="AWK6ZrYGQ6Bk1Ji1PFGg-60" target="AWK6ZrYGQ6Bk1Ji1PFGg-83" edge="1">
          <mxGeometry relative="1" as="geometry">
            <mxPoint x="-113.21739130434753" y="-828" as="targetPoint" />
          </mxGeometry>
        </mxCell>
        <mxCell id="AWK6ZrYGQ6Bk1Ji1PFGg-43" value="" style="edgeStyle=orthogonalEdgeStyle;shape=connector;rounded=1;jumpStyle=arc;orthogonalLoop=1;jettySize=auto;html=1;labelBackgroundColor=default;strokeColor=default;strokeWidth=1;fontFamily=Helvetica;fontSize=11;fontColor=default;startArrow=none;endArrow=blockThin;endFill=1;" parent="1" source="AWK6ZrYGQ6Bk1Ji1PFGg-60" target="AWK6ZrYGQ6Bk1Ji1PFGg-67" edge="1">
          <mxGeometry relative="1" as="geometry">
            <mxPoint x="300" y="-534" as="targetPoint" />
          </mxGeometry>
        </mxCell>
        <mxCell id="AWK6ZrYGQ6Bk1Ji1PFGg-25" value="Sonarr" style="whiteSpace=wrap;html=1;strokeWidth=2;" parent="1" vertex="1">
          <mxGeometry x="480" y="-878" width="119" height="40" as="geometry" />
        </mxCell>
        <mxCell id="AWK6ZrYGQ6Bk1Ji1PFGg-33" value="Prowlarr" style="whiteSpace=wrap;html=1;strokeWidth=2;portConstraintRotation=0;fixDash=0;container=0;dropTarget=0;collapsible=0;expand=1;" parent="1" vertex="1">
          <mxGeometry x="650" y="-880" width="132.84" height="44" as="geometry" />
        </mxCell>
        <mxCell id="AWK6ZrYGQ6Bk1Ji1PFGg-36" value="" style="edgeStyle=orthogonalEdgeStyle;shape=connector;rounded=1;jumpStyle=arc;orthogonalLoop=1;jettySize=auto;html=1;labelBackgroundColor=default;strokeColor=default;strokeWidth=1;fontFamily=Helvetica;fontSize=11;fontColor=default;startArrow=none;endArrow=blockThin;endFill=1;" parent="1" source="AWK6ZrYGQ6Bk1Ji1PFGg-115" target="AWK6ZrYGQ6Bk1Ji1PFGg-33" edge="1">
          <mxGeometry relative="1" as="geometry">
            <mxPoint x="422.5" y="-933" as="sourcePoint" />
            <mxPoint x="507" y="-930" as="targetPoint" />
          </mxGeometry>
        </mxCell>
        <mxCell id="AWK6ZrYGQ6Bk1Ji1PFGg-44" value="" style="edgeStyle=orthogonalEdgeStyle;shape=connector;rounded=1;jumpStyle=arc;orthogonalLoop=1;jettySize=auto;html=1;labelBackgroundColor=default;strokeColor=default;strokeWidth=1;fontFamily=Helvetica;fontSize=11;fontColor=default;startArrow=none;endArrow=blockThin;endFill=1;flowAnimation=1;" parent="1" source="AWK6ZrYGQ6Bk1Ji1PFGg-65" target="AWK6ZrYGQ6Bk1Ji1PFGg-67" edge="1">
          <mxGeometry relative="1" as="geometry">
            <mxPoint x="180" y="-1024" as="sourcePoint" />
            <mxPoint x="360" y="-494.99999999999955" as="targetPoint" />
          </mxGeometry>
        </mxCell>
        <mxCell id="AWK6ZrYGQ6Bk1Ji1PFGg-52" value="" style="edgeStyle=orthogonalEdgeStyle;shape=connector;rounded=1;jumpStyle=arc;orthogonalLoop=1;jettySize=auto;html=1;labelBackgroundColor=default;strokeColor=default;strokeWidth=1;fontFamily=Helvetica;fontSize=11;fontColor=default;startArrow=none;endArrow=blockThin;endFill=1;flowAnimation=1;" parent="1" source="AWK6ZrYGQ6Bk1Ji1PFGg-33" target="AWK6ZrYGQ6Bk1Ji1PFGg-65" edge="1">
          <mxGeometry relative="1" as="geometry">
            <mxPoint x="155" y="-763" as="sourcePoint" />
            <mxPoint x="114" y="-763" as="targetPoint" />
            <Array as="points">
              <mxPoint x="720" y="-465" />
            </Array>
          </mxGeometry>
        </mxCell>
        <mxCell id="AWK6ZrYGQ6Bk1Ji1PFGg-53" value="" style="edgeStyle=orthogonalEdgeStyle;shape=connector;rounded=1;jumpStyle=arc;orthogonalLoop=1;jettySize=auto;html=1;labelBackgroundColor=default;strokeColor=default;strokeWidth=1;fontFamily=Helvetica;fontSize=11;fontColor=default;startArrow=none;endArrow=blockThin;endFill=1;flowAnimation=1;" parent="1" source="AWK6ZrYGQ6Bk1Ji1PFGg-33" target="AWK6ZrYGQ6Bk1Ji1PFGg-25" edge="1">
          <mxGeometry relative="1" as="geometry">
            <mxPoint x="567" y="-821" as="sourcePoint" />
            <mxPoint x="187" y="-754" as="targetPoint" />
          </mxGeometry>
        </mxCell>
        <mxCell id="AWK6ZrYGQ6Bk1Ji1PFGg-38" value="" style="edgeStyle=orthogonalEdgeStyle;shape=connector;rounded=1;jumpStyle=arc;orthogonalLoop=1;jettySize=auto;html=1;labelBackgroundColor=default;strokeColor=default;strokeWidth=1;fontFamily=Helvetica;fontSize=11;fontColor=default;startArrow=none;endArrow=blockThin;endFill=1;" parent="1" source="AWK6ZrYGQ6Bk1Ji1PFGg-60" target="AWK6ZrYGQ6Bk1Ji1PFGg-65" edge="1">
          <mxGeometry relative="1" as="geometry" />
        </mxCell>
        <mxCell id="AWK6ZrYGQ6Bk1Ji1PFGg-111" style="edgeStyle=orthogonalEdgeStyle;shape=connector;rounded=1;jumpStyle=arc;orthogonalLoop=1;jettySize=auto;html=1;labelBackgroundColor=default;strokeColor=default;strokeWidth=1;fontFamily=Helvetica;fontSize=11;fontColor=default;startArrow=none;endArrow=blockThin;endFill=1;noJump=0;flowAnimation=1;" parent="1" source="AWK6ZrYGQ6Bk1Ji1PFGg-63" target="AWK6ZrYGQ6Bk1Ji1PFGg-76" edge="1">
          <mxGeometry relative="1" as="geometry">
            <Array as="points">
              <mxPoint x="390" y="-1120" />
              <mxPoint x="390" y="-1120" />
            </Array>
          </mxGeometry>
        </mxCell>
        <mxCell id="AWK6ZrYGQ6Bk1Ji1PFGg-63" value="" style="fontColor=#000000;verticalAlign=middle;verticalLabelPosition=middle;labelPosition=right;align=left;html=1;outlineConnect=0;fillColor=#d6d6d6;strokeColor=#999;gradientColor=none;gradientDirection=north;strokeWidth=2;shape=stencil(fZBNDsIgEIVPM9sG4QSm1pVRd64REYjyE2it3t7B0Zg20YTFvPc+mBlAtMXKpIEzWZJWPYgVcH6T2cnjFW2OiSVzwRnpIL0ma+9srBTbRBMpHCew6IAtodbsW4j2HLM2OQ7hNCFm3Id2XprapGRFj9u+TwUEcms8rnHeDLlR0aPaHS5b1YUmBUMD3enOe/bHRI2zzeab1gZ/BhQtAj92weIV0/e+kic=);labelBackgroundColor=none;fontFamily=Helvetica;fontSize=11;" parent="1" vertex="1">
          <mxGeometry x="308" y="-1300" width="120" height="120" as="geometry" />
        </mxCell>
        <mxCell id="AWK6ZrYGQ6Bk1Ji1PFGg-64" value="" style="fontColor=#000000;verticalAlign=middle;verticalLabelPosition=middle;labelPosition=right;align=left;html=1;outlineConnect=0;fillColor=#d6d6d6;strokeColor=#999;gradientColor=none;gradientDirection=north;strokeWidth=2;shape=stencil(ZZBNDsIgEIVPw7apcAJTbVx4iSkikJSfABX19E47uqAmJMx8bwLvDRNDNhAV4z3kqGRh4sQ4f0CyMM2IOSqG4IH31HtwitAlOJWQXIMOpNVmVpxZf2Rr3TMx3ENSOoXF3xrhJ1sHejWSk6RHTCkxM4FzI54EtdO2mGVaskoy+KJ86WRwqE2Qi1W+2lTe2BqyNTqwHq+4TLOVWMxos4tek9Un/fIN9Wq6uou8X8FqqQ2H5C/fRmm/G/gA);labelBackgroundColor=none;fontFamily=Helvetica;fontSize=11;" parent="1" vertex="1">
          <mxGeometry x="1750" y="-540" width="120" height="120" as="geometry" />
        </mxCell>
        <mxCell id="AWK6ZrYGQ6Bk1Ji1PFGg-65" value="" style="fontColor=#000000;verticalAlign=middle;verticalLabelPosition=middle;labelPosition=right;align=left;html=1;outlineConnect=0;fillColor=#d6d6d6;strokeColor=#999;gradientColor=none;gradientDirection=north;strokeWidth=2;shape=stencil(fVFBDoIwEHxNr6S00cjRoJw8+YO11EJSaNMi6O9duhgDiSY9zM5MNjNbJsvYgNdMcIheq4HJExNihNDCzSItUGmIzAWnuYdOE3WFGkJA6uKMI3FameWZ8SObMf8CWd5d0Ca4R1+vHBvfx912YOaEMSha3gyDj0yir8KX5Jg5r3vlrMUS7agz5TrUwhKwOuR30EWByKaoldjtM98bCv2kvUu/12qaNu2315hD/CkhSzT86IsgyfQFSXkD);labelBackgroundColor=none;fontFamily=Helvetica;fontSize=11;" parent="1" vertex="1">
          <mxGeometry x="420.94" y="-525" width="120" height="120" as="geometry" />
        </mxCell>
        <mxCell id="AWK6ZrYGQ6Bk1Ji1PFGg-67" value="" style="fontColor=#000000;verticalAlign=middle;verticalLabelPosition=middle;labelPosition=right;align=left;html=1;outlineConnect=0;fillColor=#d6d6d6;strokeColor=#999;gradientColor=none;gradientDirection=north;strokeWidth=2;shape=stencil(fVBbDsIgEDwNvw3CCUzVD+MlEClgeAXQ2tu7dGtMm2jCx+zMZJlZwvtiRFKEUVGSkpXwA2HsKbIVVwc0A8UguWMU5yC8QuqsnJsGG4C8RB1RHld2fiR0TxqmX8D7IWalc3yE28qx8X3c1gvdMpYscbmpNRXCwXeCJ1Iq3X3J0sWsgZMmR6+kKBUG6xvlIGKXgsaYL9y0dJpW07hpvL1A+/ZPbN6D4UdDALOMZ5+VNw==);labelBackgroundColor=none;fontFamily=Helvetica;fontSize=11;" parent="1" vertex="1">
          <mxGeometry x="213.5" y="-525" width="120" height="120" as="geometry" />
        </mxCell>
        <mxCell id="AWK6ZrYGQ6Bk1Ji1PFGg-68" value="" style="fontColor=#0066CC;verticalAlign=top;verticalLabelPosition=bottom;labelPosition=center;align=center;html=1;outlineConnect=0;fillColor=#444444;strokeColor=#000000;gradientColor=none;gradientDirection=north;strokeWidth=1;shape=stencil(rZRNT8MwDIZ/Ta5WmqRfR1RAXEBIHDiHNWOB0FRpYPDvSZ0CCyvdJmFVTfy6dh9baQlvho3sFWFUDr1aecLPCWNv0mn5YILMQmQTxYxyKKPSyRcVxavb4F7bTnvrwu7Ghtudl10b1vuN9lOJwTv7rLa69V/For6dvIJCPSr8gtCzoI8Xb9bWqUdnX0O13cB3WBuzsgZfHFcsRhhnaLi/nE2NPPPJFG0h2ehOPVndBQ8XTIyYfye5cbg7s5wa3h8Bo+9RiQj0Y/JALFQfRxF7Wnpivt812tHolYDyF3pOoRQJew60SvAFVAfwTwdv0RbKKmN0P6gfrLIEkSdcNQMhkm6K5NAX/06d8TpT8vC4J+RMFClwATydPrCEOD+RmDdB2fvSUI2/BhQ+AQ==);glass=0;fontFamily=Helvetica;fontSize=11;" parent="1" vertex="1">
          <mxGeometry x="828.47" y="-1077" width="103.96" height="67" as="geometry" />
        </mxCell>
        <mxCell id="AWK6ZrYGQ6Bk1Ji1PFGg-70" value="" style="fontColor=#000000;verticalAlign=middle;verticalLabelPosition=middle;labelPosition=right;align=left;html=1;outlineConnect=0;fillColor=#d6d6d6;strokeColor=#999;gradientColor=none;gradientDirection=north;strokeWidth=2;shape=stencil(fVFLDoIwED1Nl5DaxgMYlJV712NboAl0SFtFb+/AaAwkmjRh3iflvanQVepgdEJJSKMzWeijUOoO0cO1J1qR0jG5U5JxgMExdfHB4pSIO2OLrE4rtz4JeRDzLL+DrhqMro14C3bl2Pg+bj9AO0dM0fDlXc5jEpp8NR1jgyq9wdBQHBdLgwOxFjLQZ+YpYJ3QeOiLBRYGe4xE7neUuJ64RUGoHEPLNR78p3fl5wpNm4VsFzTH+lNLV2T4sQEaFplfZVFe);labelBackgroundColor=none;aspect=fixed;container=1;collapsible=0;fontFamily=Helvetica;fontSize=11;" parent="1" vertex="1">
          <mxGeometry x="950" y="-1085.25" width="83.5" height="83.5" as="geometry" />
        </mxCell>
        <mxCell id="AWK6ZrYGQ6Bk1Ji1PFGg-72" value="" style="fontColor=#000000;verticalAlign=middle;verticalLabelPosition=middle;labelPosition=right;align=left;html=1;outlineConnect=0;fillColor=#d6d6d6;strokeColor=#999;gradientColor=none;gradientDirection=north;strokeWidth=2;shape=stencil(ZVHLigMhEPwajzM4uoRcQx7kkH8IndE4QnygTjb799vazEEC0nRVNU1Vy+QxLxA1Exxy1HNh8sSEeEOy8HghLVBZiJwEJ+zBaaKukLMNSN2CCST+dsPyzPiB1Z4zeXyGpE0Kq1edsMnWgalOcpppyVJKzEzi3AXfrPzw0pD8CAqeabVlnINDwaxW6YxNW1AbznmraOiym36wOq3s6vaNn1COn+EanL4fMEAu4Mu9Rhjz24zRG4ryIRfDnuBfD7egctdfacPVdB8fma8LNJa+oBH/);labelBackgroundColor=none;shadow=0;glass=0;sketch=1;fontFamily=Helvetica;fontSize=11;" parent="1" vertex="1">
          <mxGeometry x="1800" y="-860" width="120" height="120" as="geometry" />
        </mxCell>
        <mxCell id="AWK6ZrYGQ6Bk1Ji1PFGg-73" value="" style="fontColor=#000000;verticalAlign=middle;verticalLabelPosition=middle;labelPosition=right;align=left;html=1;outlineConnect=0;fillColor=#d6d6d6;strokeColor=#999;gradientColor=none;gradientDirection=north;strokeWidth=2;shape=stencil(fZBdDsIgEIRPw2MbhBOYauODl1hbBJLyE6hWb+/SbWPaRBNCdme+LLMw2WQDUTHBIUfVjUyemBBPSBZuA8oCHUPiQXDqPThF0kVZ18MwoHgNOpA9bXB5ZvzISs2/hWzuISmdwsP3G2LHrbR1oEvGnDoabsYxZiaRa/FAjLk2S5Y62xHZ1jqN96pWtgu+yq4A0WtK+qJhy1rvTTftlt5/Qnn5T3LZIPBjSSxmm35+dj4=);labelBackgroundColor=none;fontFamily=Helvetica;fontSize=11;" parent="1" vertex="1">
          <mxGeometry x="1780.9" y="-700" width="120" height="120" as="geometry" />
        </mxCell>
        <mxCell id="AWK6ZrYGQ6Bk1Ji1PFGg-112" style="edgeStyle=orthogonalEdgeStyle;shape=connector;rounded=1;jumpStyle=arc;orthogonalLoop=1;jettySize=auto;html=1;labelBackgroundColor=default;strokeColor=default;strokeWidth=1;fontFamily=Helvetica;fontSize=11;fontColor=default;startArrow=none;endArrow=blockThin;endFill=1;noJump=0;flowAnimation=1;" parent="1" source="AWK6ZrYGQ6Bk1Ji1PFGg-76" target="AWK6ZrYGQ6Bk1Ji1PFGg-63" edge="1">
          <mxGeometry relative="1" as="geometry">
            <Array as="points">
              <mxPoint x="350" y="-1130" />
              <mxPoint x="350" y="-1130" />
            </Array>
          </mxGeometry>
        </mxCell>
        <mxCell id="AWK6ZrYGQ6Bk1Ji1PFGg-76" value="" style="verticalAlign=top;verticalLabelPosition=bottom;labelPosition=center;align=center;html=1;outlineConnect=0;gradientColor=none;gradientDirection=north;strokeWidth=2;shape=stencil(7VpNj5swFPw1HIP8weex2ra3nnumiZOgEohsusn219fBIdn3CiwOhNAqq5UWjHkM82bMLMLhL2qb7IXDSKL2Ylk6/LPD2Gsi0+RHpoeZPrI1g5HvBmYgT3bCjH1PpciEUnrwW7ESO3NclbL4KQ7pqjyfmuZbIdPSHD2YMUrIaZ9/ccgnPXr6vWzwl2WR5xpOWuSqGvvaNnFdSLGRxa98BWagefVslbyKhnoPmF1BlifGNfVyqdLfZ0oZAawzv4k1Ro5m/7z3Zvb8oG5RTxTrNMtMtyyQG9BnfB6AF0F0FMKL6ATwzPxlkRVSD5i/1dXzIhfWV2+o4zC+rn6sioksS/dKXImjAWxsAJiLIHMBdak19gHgYFc9CA0i827oqY3YVKkdbq1OK7EMloS1tP4VkXbpgE4qBCto02rUChp/2me46Gd2W+/zjm77NffYrdn75HTeX/MaZ9fn7IoqdNSWDK3iQGflLM1BZdcHtekHz/LO2jrw6I0skRux0NuLdZZsQJ6R9WXrq8o3NKAOQuzfnUjhAnCuc1wkx1QtZFEmpyzZlJkG3QgkiRFE0qAGLLNCtYuwRUN6couMRglXwyXKuAtXQN+NJ9ARQTIivVR0wdpHR8GAG0E6Yi6HtSchKYIcRc0UEUjRBWoPisJ67tMNNX0hcgObxA0ecoPXyw2hhRv0UsjGckOA3TAFRQxRxHq5IbBwgzeAof/TDZwiN5AJGh2iRod9vHBF2scLvPufdwsvcIK8oAPRFG7AKawlhEE3XMH2eXw+3YDD/KyTEmw1fVBS0sFovkkJLhlXqM+kdIMb4jkHJWiG2C4n3d5p5AWKvRBNwlHPpITcQK2S0tMN0A0+DkoDEsboUQm6wX9MUgpnHZSgGUKrnPT0AvRChN6o89He56HK4Qfv6m0wU/SmMIhHU37kj1kbPYXxG84Rccfe/XBHAazs30sjI6ovJuNh7mQjZLN0TCcbgzAjNjjWXThTL6LaGHf4wUcCFpzE7H6c3HUNwbhv4sTqodf3gVcVbflaSW9Uh823WNWRPw==);fillColor=#d6d6d6;strokeColor=#999999;fontFamily=Helvetica;fontSize=11;fontColor=default;" parent="1" vertex="1">
          <mxGeometry x="318" y="-1086" width="100" height="85" as="geometry" />
        </mxCell>
        <mxCell id="AWK6ZrYGQ6Bk1Ji1PFGg-77" value="&lt;font style=&quot;font-weight: normal&quot;&gt;pablowako&lt;/font&gt;" style="whiteSpace=wrap;html=1;fillColor=#ffffff;strokeWidth=3;rounded=1;arcSize=4;glass=0;comic=0;shadow=0;fontSize=64;align=left;labelPosition=center;verticalLabelPosition=middle;verticalAlign=middle;spacingLeft=10;connectable=0;container=1;collapsible=0;recursiveResize=0;fontStyle=1;fontColor=#e4e4e4;fontFamily=Titillium Web;spacingBottom=6;strokeColor=#CCCCCC;" parent="1" vertex="1">
          <mxGeometry x="-627" y="-1170" width="550" height="100" as="geometry" />
        </mxCell>
        <mxCell id="AWK6ZrYGQ6Bk1Ji1PFGg-78" value="&lt;b style=&quot;font-family: &amp;quot;titillium web&amp;quot; ; font-size: 18px&quot;&gt;&lt;i&gt;pablowako.com&lt;br&gt;&lt;/i&gt;&lt;/b&gt;i7 4770&lt;br&gt;16GB RAM" style="text;html=1;align=left;verticalAlign=middle;resizable=0;points=[];autosize=1;fontSize=11;fontColor=default;fontFamily=Helvetica;" parent="AWK6ZrYGQ6Bk1Ji1PFGg-77" vertex="1">
          <mxGeometry x="230" y="10" width="150" height="60" as="geometry" />
        </mxCell>
        <mxCell id="AWK6ZrYGQ6Bk1Ji1PFGg-79" value="&lt;p style=&quot;line-height: 100%&quot;&gt;&lt;b&gt;&lt;font style=&quot;font-size: 36px&quot;&gt;3.6&lt;/font&gt;&lt;span&gt;TB&lt;/span&gt;&lt;/b&gt;&lt;br&gt;&lt;font style=&quot;font-size: 18px&quot; color=&quot;#aaaaaa&quot;&gt;&lt;i&gt;usable&lt;/i&gt;&lt;/font&gt;&lt;/p&gt;" style="text;html=1;align=right;verticalAlign=middle;resizable=0;points=[];autosize=1;fontSize=11;fontFamily=Helvetica;fontColor=default;" parent="AWK6ZrYGQ6Bk1Ji1PFGg-77" vertex="1">
          <mxGeometry x="380" y="5" width="90" height="70" as="geometry" />
        </mxCell>
        <mxCell id="AWK6ZrYGQ6Bk1Ji1PFGg-69" value="" style="fontColor=#000000;verticalAlign=middle;verticalLabelPosition=middle;labelPosition=right;align=left;html=1;outlineConnect=0;fillColor=#d6d6d6;strokeColor=#999;gradientColor=none;gradientDirection=north;strokeWidth=2;shape=stencil(ZZDbDoIwDIafZpcQ2PQBDOqVt16Tso1DAhvZQfTtLStegMmyrt/fdP3LROV7mDXjBfhZy8DElXH+AjdAMyLmqPQES15QbmDShJ5NNCEietjOkrjsisWNFRe2vgsmqtY63TkbjdoJP3mYoFsn8U5Skz6E2TOBdXc8UhmRD9KadjBKu1zaCamCABhW7jGOOIjPGgdG+Uwg4KeN1gnS7etUV8c0f3YueT6bjgy86e/N62eXLYdNHDZzP/hF8mc5Udp5Al8=);labelBackgroundColor=none;container=1;collapsible=0;aspect=fixed;fontFamily=Helvetica;fontSize=11;" parent="AWK6ZrYGQ6Bk1Ji1PFGg-77" vertex="1">
          <mxGeometry x="480" y="20" width="60" height="60" as="geometry" />
        </mxCell>
        <mxCell id="AWK6ZrYGQ6Bk1Ji1PFGg-82" value="" style="edgeStyle=orthogonalEdgeStyle;shape=connector;rounded=1;jumpStyle=arc;orthogonalLoop=1;jettySize=auto;html=1;labelBackgroundColor=default;strokeColor=default;strokeWidth=1;fontFamily=Helvetica;fontSize=11;fontColor=default;startArrow=none;endArrow=blockThin;endFill=1;flowAnimation=1;" parent="1" source="AWK6ZrYGQ6Bk1Ji1PFGg-25" target="AWK6ZrYGQ6Bk1Ji1PFGg-67" edge="1">
          <mxGeometry relative="1" as="geometry">
            <mxPoint x="450.94000000000005" y="-800" as="sourcePoint" />
            <mxPoint x="240" y="-331" as="targetPoint" />
            <Array as="points">
              <mxPoint x="540" y="-800" />
              <mxPoint x="390" y="-800" />
              <mxPoint x="390" y="-480" />
            </Array>
          </mxGeometry>
        </mxCell>
        <mxCell id="AWK6ZrYGQ6Bk1Ji1PFGg-60" value="" style="fontColor=#000000;verticalAlign=middle;verticalLabelPosition=middle;labelPosition=right;align=left;html=1;outlineConnect=0;fillColor=#d6d6d6;strokeColor=#999;gradientColor=none;gradientDirection=north;strokeWidth=2;shape=stencil(fVFbjsIwDDxNPqlKcgJUlq/V3sENJomWPJS4FG6P07DabSVWyoc9M7LHE6GGYiGhkD2UhJqEOgopb5AdjFeGJTO2gXvZtz6AxwZ9GRfujHxGExs3r7TqQ/QHUev+t1DDJWY0OU7hvFJsdD9q58FUgyXrNtwSpSIU6078MsydcWSncSqYdQyEgTodPXOjCxbZ4Okc9TfmHaFPVyAsDHkohPmvaFlUqVDP2jme1aVg2mH3tvsVwWPVzZuAtoFVo/8cqgYWvMmEi4Vuv7QwTw==);labelBackgroundColor=none;rounded=1;dashed=1;fontFamily=Helvetica;fontSize=11;" parent="1" vertex="1">
          <mxGeometry x="198" y="-764" width="120" height="120" as="geometry" />
        </mxCell>
        <mxCell id="AWK6ZrYGQ6Bk1Ji1PFGg-114" value="" style="fontColor=#000000;verticalAlign=middle;verticalLabelPosition=middle;labelPosition=right;align=left;html=1;outlineConnect=0;fillColor=#d6d6d6;strokeColor=#999;gradientColor=none;gradientDirection=north;strokeWidth=2;shape=stencil(fVFBDoIwEHxNr6S00cjRoJw8+YO11EJSaNMi6O9duhgDiSY9zM5MNjNbJsvYgNdMcIheq4HJExNihNDCzSItUGmIzAWnuYdOE3WFGkJA6uKMI3FameWZ8SObMf8CWd5d0Ca4R1+vHBvfx912YOaEMSha3gyDj0yir8KX5Jg5r3vlrMUS7agz5TrUwhKwOuR30EWByKaoldjtM98bCv2kvUu/12qaNu2315hD/CkhSzT86IsgyfQFSXkD);labelBackgroundColor=none;fontFamily=Helvetica;fontSize=11;" parent="1" vertex="1">
          <mxGeometry x="1850" y="-1070" width="120" height="120" as="geometry" />
        </mxCell>
        <mxCell id="AWK6ZrYGQ6Bk1Ji1PFGg-115" value="Ubuntu server" style="rounded=1;whiteSpace=wrap;html=1;strokeColor=#999;fillColor=#f7f7f7;shadow=0;dashed=1;fontSize=22;fontStyle=0;align=left;verticalAlign=bottom;strokeWidth=2;glass=0;spacingLeft=0;arcSize=2;container=1;collapsible=0;recursiveResize=0;dashPattern=0 10 3 1 1 1 1 3 3 1 3 1 3 3 3 1 1 1 3 1 1 3 3 1 1 1 3 3 1 3 1 1 3 1 1 8 3 1 1 1 3 1 1 3 3 1 3 1 3 3 3 1 3 3 1 1 3 1 3 3 3 1 3 1 3 3 1 1 1 1 1 3 1 0;fontFamily=Helvetica;fontColor=default;" parent="1" vertex="1">
          <mxGeometry x="283" y="-950" width="150" height="55" as="geometry">
            <mxRectangle x="520" y="1140" width="50" height="40" as="alternateBounds" />
          </mxGeometry>
        </mxCell>
        <mxCell id="AWK6ZrYGQ6Bk1Ji1PFGg-117" value="" style="fontColor=#000000;verticalAlign=middle;verticalLabelPosition=middle;labelPosition=right;align=left;html=1;outlineConnect=0;fillColor=#d6d6d6;strokeColor=#999;gradientColor=none;gradientDirection=north;strokeWidth=2;shape=stencil(ZZDbDoIwDIafZpcQ2PQBDOqVt16Tso1DAhvZQfTtLStegMmyrt/fdP3LROV7mDXjBfhZy8DElXH+AjdAMyLmqPQES15QbmDShJ5NNCEietjOkrjsisWNFRe2vgsmqtY63TkbjdoJP3mYoFsn8U5Skz6E2TOBdXc8UhmRD9KadjBKu1zaCamCABhW7jGOOIjPGgdG+Uwg4KeN1gnS7etUV8c0f3YueT6bjgy86e/N62eXLYdNHDZzP/hF8mc5Udp5Al8=);labelBackgroundColor=none;container=1;collapsible=0;aspect=fixed;fontFamily=Helvetica;fontSize=11;opacity=30;" parent="AWK6ZrYGQ6Bk1Ji1PFGg-115" vertex="1">
          <mxGeometry x="80" y="-5" width="60" height="60" as="geometry" />
        </mxCell>
        <mxCell id="AWK6ZrYGQ6Bk1Ji1PFGg-116" value="&lt;font size=&quot;1&quot;&gt;&lt;span style=&quot;font-size: 12px&quot;&gt;&lt;br&gt;&lt;/span&gt;&lt;/font&gt;" style="fontColor=#000000;verticalAlign=middle;verticalLabelPosition=middle;labelPosition=right;align=left;html=1;outlineConnect=0;fillColor=#d6d6d6;strokeColor=#999;gradientColor=none;gradientDirection=north;strokeWidth=2;shape=stencil(fZFNbsMgEIVPwzKIQNKuIyde5RIEU2zFZhDgkN6+g8dV5UiNxOLNN4/5Aaaa1OtgmRQ6BWsyU2cm5UPHQd9GxBIzPcG9FBR7PVlCZzB3GxE1MAVItcwVHJCtbK6pCxMnVrX4E6r5gmhdhNl3G8eL79c9TNrVJikaKt7nHBJT6GvxDHteAjcwoS6l8G4ZbwW3EVzlYWfAZ+szBnMYQXcJlRS1Rytw8HZdhgfvaJMnNdsJLj+JfK/k43VVfjxsH01JiuuEbzZUDRr+eQwUS5p+asn8AA==);labelBackgroundColor=none;aspect=fixed;spacingLeft=0;fontFamily=Helvetica;fontSize=11;" parent="AWK6ZrYGQ6Bk1Ji1PFGg-115" vertex="1">
          <mxGeometry x="126" y="4" width="20" height="20" as="geometry" />
        </mxCell>
      </root>
    </mxGraphModel>
  </diagram>
</mxfile>
